P3
64 64
255
25 0 0
25 8 31
0 12 0
0 1 0
7 0 0
0 0 13
0 0 0
24 8 1
9 0 12
0 0 0
0 14 0
14 19 20
12 0 21
23 6 25
0 7 0
24 0 0
0 0 0
0 19 1
0 0 0
34 27 0
32 5 3
14 4 0
0 3 0
0 41 14
6 3 47
89 89 96
0 0 0
82 89 85
159 95 75
253 186 134
249 202 209
0 0 0
0 0 0
0 0 0
249 202 209
253 186 134
159 95 75
82 89 85
0 0 0
89 89 96
6 3 47
0 41 14
0 3 0
14 4 0
32 5 3
34 27 0
0 0 0
0 19 1
0 0 0
24 0 0
0 7 0
23 6 25
12 0 21
14 19 20
0 14 0
0 0 0
9 0 12
24 8 1
0 0 0
0 0 13
7 0 0
0 1 0
0 12 0
25 8 31
24 0 0
0 0 0
0 17 23
6 0 0
17 20 6
16 20 2
4 0 0
0 3 0
1 0 0
28 9 2
0 0 14
1 0 16
5 0 0
0 0 11
5 5 15
0 20 14
0 22 14
0 30 0
12 38 12
0 0 0
0 0 1
0 0 21
0 14 17
0 0 0
0 0 0
0 0 0
39 64 23
0 0 0
0 0 0
0 0 0
0 0 0
255 255 255
252 154 186
255 255 255
0 0 0
0 0 0
0 0 0
0 0 0
17 64 38
0 0 0
25 0 0
0 0 0
24 33 44
0 0 0
0 0 22
0 0 0
42 24 27
0 0 0
2 12 38
0 0 0
29 16 32
0 0 0
15 38 22
0 0 0
10 34 0
0 0 0
3 0 14
0 0 0
8 15 23
0 0 0
8 0 0
0 0 29
22 0 0
11 5 0
0 0 0
26 5 0
13 0 0
0 16 1
19 26 0
0 0 0
34 23 0
0 4 3
0 7 0
0 0 11
17 0 29
0 0 0
34 24 15
0 13 0
2 0 13
0 0 0
0 29 13
0 0 15
0 0 10
22 28 0
34 19 46
0 0 0
0 0 0
20 0 0
17 4 53
65 87 95
0 0 0
75 55 41
157 103 105
220 177 138
227 194 194
0 0 0
0 24 0
0 0 0
255 246 209
224 195 148
80 78 45
138 108 133
0 0 0
101 126 141
0 0 0
34 77 50
0 0 0
62 29 6
0 0 0
40 66 65
0 0 0
16 19 24
0 0 0
49 34 56
0 0 0
21 17 23
0 4 0
30 47 18
0 0 0
43 25 36
0 0 0
8 27 14
0 11 0
8 20 28
0 0 0
0 26 23
0 0 2
0 0 19
0 3 0
2 21 13
0 0 0
0 24 17
9 0 0
5 5 30
0 0 0
0 20 19
0 0 0
3 6 3
0 0 0
20 27 28
0 0 0
0 9 17
0 0 0
14 20 6
0 0 0
24 0 12
6 0 0
12 0 2
0 0 0
36 0 42
0 0 4
0 0 0
0 0 0
0 0 0
26 13 7
0 0 10
0 0 0
0 0 0
0 0 0
255 255 255
0 0 0
255 255 241
0 0 0
0 0 0
0 0 0
0 0 0
83 85 69
0 0 0
62 8 36
0 0 0
86 118 90
0 0 0
26 41 54
0 0 0
42 54 57
0 0 0
43 64 47
0 0 0
58 41 67
0 0 0
34 36 69
0 0 0
37 51 50
0 0 0
35 29 38
0 0 3
31 34 7
0 0 0
37 23 26
0 0 0
0 7 7
0 9 0
0 0 0
9 0 0
5 23 19
0 0 3
0 33 30
0 0 0
11 16 24
0 0 0
11 11 12
0 0 0
16 10 31
0 0 0
40 36 29
0 0 0
12 13 22
0 5 0
38 26 29
0 0 0
44 18 30
0 0 0
52 48 41
0 0 0
12 20 5
0 0 0
39 41 52
70 61 83
0 0 0
64 45 28
153 129 114
175 146 113
199 186 180
0 0 0
255 255 255
0 0 0
255 225 238
255 201 184
94 15 31
183 141 149
0 0 0
137 140 170
0 0 0
57 76 103
0 0 0
55 81 91
0 0 0
114 118 91
0 0 0
65 43 64
0 0 0
42 67 56
0 0 0
30 57 76
0 0 0
49 57 61
0 0 0
62 61 48
0 0 0
22 47 56
0 0 0
19 39 36
0 0 0
7 17 11
0 0 0
7 14 10
0 2 0
0 0 0
0 0 0
20 15 24
0 0 0
17 11 31
0 0 0
50 30 23
0 0 0
22 26 31
0 0 0
50 27 26
0 0 0
46 43 27
0 0 0
14 28 34
0 0 0
21 49 41
0 0 0
0 12 12
0 0 0
45 0 44
15 3 0
20 22 28
1 0 0
0 0 0
6 4 20
0 0 0
0 0 0
0 0 0
0 0 0
255 255 255
0 0 0
159 139 161
0 0 0
0 0 0
0 0 0
0 0 0
87 100 89
0 0 0
72 72 11
0 0 0
139 152 134
0 0 0
76 66 96
0 0 0
102 103 70
0 0 0
69 81 122
0 0 0
82 86 92
0 0 0
52 79 66
0 0 0
60 40 71
0 0 0
55 44 55
0 0 0
58 40 27
0 0 0
3 21 38
0 0 1
18 23 33
0 0 0
10 0 0
24 0 0
16 0 11
0 0 0
15 22 22
0 0 0
17 2 28
0 0 0
28 38 9
0 0 0
29 26 10
0 0 0
22 37 80
0 0 0
0 58 43
0 0 0
49 58 39
0 0 0
36 14 32
0 0 0
94 57 73
0 0 0
10 20 46
0 0 0
34 64 63
83 50 49
0 0 0
29 37 0
110 118 101
159 132 145
169 149 198
0 0 0
255 255 255
0 0 0
255 211 167
255 255 242
39 0 0
230 254 243
0 0 0
161 203 201
0 0 0
107 116 133
0 0 0
100 87 72
0 0 0
129 151 161
0 0 0
79 99 101
0 0 0
109 114 93
0 0 0
88 115 93
0 0 0
76 86 89
0 0 0
59 70 73
0 0 0
19 47 54
0 0 0
25 50 29
0 0 0
21 8 22
0 0 0
0 13 29
11 0 0
0 0 0
13 0 0
13 8 11
0 0 0
34 43 9
0 0 0
48 32 30
0 0 0
39 30 31
0 0 0
32 63 34
0 0 0
36 11 37
0 0 0
50 41 30
0 0 0
65 24 35
0 0 0
23 18 26
0 0 0
26 8 28
0 0 0
17 47 66
0 0 0
0 0 0
12 73 47
10 0 0
0 0 0
0 0 0
0 0 0
255 255 255
0 0 0
72 34 60
0 0 0
0 0 0
13 65 63
0 0 0
155 175 153
0 0 0
165 160 169
0 0 0
142 174 188
0 0 0
115 124 141
0 0 0
113 110 133
0 0 0
121 148 147
0 0 0
103 115 114
0 0 0
96 118 101
0 0 0
83 84 72
0 0 0
80 70 75
0 0 0
50 70 55
0 0 0
30 20 36
0 0 0
37 20 30
11 0 0
0 0 0
12 0 0
0 32 0
0 0 0
18 24 28
0 0 0
35 18 55
0 0 0
9 41 66
0 0 0
12 78 43
0 0 0
60 44 33
0 0 0
49 18 47
0 0 0
25 18 64
0 0 0
38 0 34
0 0 0
51 67 29
0 0 0
49 72 54
0 0 0
11 26 19
46 70 45
0 0 0
24 0 15
113 61 73
255 255 255
178 144 183
0 0 0
255 255 255
0 8 25
192 159 102
255 255 255
18 0 0
255 255 255
0 0 0
235 250 255
0 0 0
148 188 222
0 0 0
163 157 166
0 0 0
177 156 195
0 0 0
115 152 125
0 0 0
112 106 150
0 0 0
101 119 132
0 0 0
101 105 146
0 0 0
71 103 89
0 0 0
83 60 53
0 0 0
45 46 61
0 0 0
14 19 33
0 0 0
10 10 12
0 0 13
4 22 0
0 5 0
0 49 21
0 0 0
25 43 39
0 0 0
51 39 56
0 0 0
21 31 41
0 0 0
26 32 50
0 0 0
53 46 42
0 0 0
40 20 31
0 0 0
46 27 43
0 0 0
21 22 57
0 0 0
0 10 8
32 34 30
33 42 34
8 2 0
0 0 0
64 74 89
40 38 51
0 0 12
0 0 0
0 0 0
255 255 255
0 0 0
59 0 0
0 0 0
0 0 0
98 135 211
0 0 0
249 255 255
0 0 0
153 172 163
0 0 0
176 210 232
0 0 0
144 166 192
0 0 0
153 174 220
0 0 0
151 166 205
0 0 0
134 155 166
0 0 0
80 111 140
0 0 0
99 117 103
0 0 0
68 82 89
0 0 0
68 30 70
0 0 0
37 39 51
0 0 0
19 12 0
3 0 0
4 0 0
0 0 0
44 5 10
0 0 0
44 30 52
0 0 0
0 2 5
20 0 0
44 11 61
0 0 0
47 27 46
0 0 0
50 40 27
0 0 0
34 33 52
0 0 0
48 39 37
0 1 0
33 56 71
0 0 0
66 81 80
5 0 2
0 0 0
17 16 17
39 70 71
106 77 103
0 0 0
0 10 0
25 23 0
255 212 251
44 4 66
0 0 0
255 255 255
101 162 134
245 201 142
255 255 255
0 0 0
255 255 255
0 0 0
255 255 255
0 0 0
174 179 229
0 0 0
230 207 211
0 0 0
201 205 248
0 0 0
164 159 181
0 0 0
160 163 173
0 0 0
112 148 152
0 0 0
145 145 116
0 0 0
90 61 101
0 0 0
89 87 70
0 0 0
62 83 79
0 0 0
48 44 47
0 0 0
0 4 29
0 27 0
13 0 17
0 0 0
1 18 32
0 0 0
18 55 26
0 0 0
39 49 46
0 0 0
45 55 33
0 0 0
30 17 64
0 0 0
11 15 0
0 0 0
40 47 29
0 0 0
7 55 40
1 2 0
25 0 45
0 0 0
0 0 0
6 5 9
15 7 0
84 72 76
0 0 0
18 44 73
0 0 0
0 0 0
0 0 0
0 0 0
255 255 255
0 0 0
0 0 0
0 0 0
0 0 0
157 204 255
0 0 0
156 178 156
0 0 0
255 255 255
0 0 0
255 255 255
0 0 0
222 215 255
0 0 0
175 190 214
0 0 0
180 198 220
0 0 0
167 207 178
0 0 0
118 123 169
0 0 0
116 138 136
0 0 0
67 88 104
0 0 0
68 48 67
0 0 0
44 56 57
0 0 0
13 48 39
0 0 0
0 0 0
0 0 1
6 9 29
0 0 0
10 3 26
0 0 0
40 38 38
0 0 0
47 28 18
0 0 0
48 32 35
0 0 0
58 54 38
0 0 0
5 21 0
0 0 0
45 8 48
3 0 0
28 38 11
0 0 0
0 0 30
8 0 0
101 83 82
0 4 10
0 0 0
116 113 122
0 0 0
95 110 93
101 116 53
254 250 239
158 189 238
0 0 0
255 255 255
255 255 255
107 115 33
255 255 255
0 0 0
255 255 255
0 0 0
255 255 255
0 0 0
245 248 255
0 0 0
200 242 194
0 0 0
246 255 255
0 0 0
166 195 215
0 0 0
179 190 214
0 0 0
168 150 148
0 0 0
134 120 140
0 0 0
131 115 161
0 0 0
82 92 105
0 0 0
29 59 71
0 0 0
50 12 39
0 0 0
0 28 28
0 13 11
0 0 0
4 0 0
23 12 0
0 0 0
18 5 17
0 0 0
26 24 15
0 0 0
48 0 32
0 0 5
28 0 29
0 0 0
0 0 0
0 0 0
0 0 0
1 0 0
0 0 0
0 0 13
44 33 23
0 0 0
0 0 0
0 0 0
36 30 71
9 0 0
0 0 0
72 69 113
0 0 0
40 22 49
0 0 0
0 0 0
154 255 246
0 0 0
0 0 0
0 0 0
0 0 0
186 255 255
0 0 0
255 255 255
0 0 0
255 255 255
0 0 0
255 255 255
0 0 0
250 253 255
0 0 0
209 208 255
0 0 0
155 187 189
0 0 0
178 189 204
0 0 0
154 148 179
0 0 0
129 110 152
0 0 0
119 105 134
0 0 0
94 86 77
0 0 0
39 54 54
0 0 0
5 18 13
15 0 0
0 0 0
5 9 28
9 0 0
4 7 0
17 32 1
0 12 7
13 23 31
0 0 0
39 33 36
0 0 0
41 30 47
0 0 0
41 25 31
0 0 0
0 17 31
0 0 0
12 20 55
18 18 63
11 37 41
15 15 5
0 0 0
16 0 36
112 117 135
0 0 0
0 0 0
153 147 196
0 0 0
0 14 0
0 0 0
194 186 153
0 0 22
45 0 67
255 255 255
255 255 255
50 0 0
255 255 255
0 0 0
255 255 255
0 0 0
255 255 255
0 0 0
183 209 241
0 0 0
233 245 232
0 0 0
219 243 255
0 0 0
236 227 231
0 0 0
211 209 244
0 0 0
167 161 204
0 0 0
150 134 191
0 0 0
93 129 156
0 0 0
94 91 132
0 0 0
75 52 60
0 0 0
79 72 43
0 0 0
22 10 42
19 30 8
0 0 0
0 31 12
0 0 12
0 0 0
9 14 4
0 0 0
2 20 29
0 0 0
20 14 31
0 0 0
10 17 1
0 0 0
36 38 15
0 0 7
36 10 17
0 15 31
0 0 12
0 0 0
37 60 24
65 115 120
0 0 0
0 0 0
0 0 0
0 0 0
0 0 0
230 243 255
10 0 35
0 0 0
0 0 0
0 0 0
0 0 0
0 0 0
0 0 0
0 5 74
0 0 0
255 255 255
0 0 0
162 172 241
0 0 0
255 255 255
0 0 0
241 255 255
0 0 0
211 243 255
0 0 0
239 255 255
0 0 0
208 220 255
0 0 0
167 205 212
0 0 0
203 213 219
0 0 0
130 139 145
0 0 0
117 116 145
0 0 0
84 93 89
0 0 0
67 52 102
0 0 0
36 29 52
0 0 0
0 0 0
43 35 41
0 19 0
8 33 19
0 2 8
7 1 0
4 35 0
0 0 4
0 0 23
0 0 0
17 0 2
4 12 8
6 0 5
24 3 0
13 16 35
3 0 14
0 11 0
64 15 47
72 82 76
0 0 0
0 0 3
27 34 62
12 33 64
0 19 37
0 0 0
198 170 207
0 0 0
0 0 0
0 0 0
145 199 232
57 35 161
59 0 113
255 255 255
255 255 255
0 0 0
255 255 255
0 0 0
255 255 255
0 0 0
255 255 255
0 0 0
167 219 219
0 0 0
243 255 255
0 0 0
231 235 255
0 0 0
255 255 255
0 0 0
202 237 255
0 0 0
179 204 224
0 0 0
170 184 204
0 0 0
164 190 195
0 0 0
121 120 147
0 0 0
71 83 108
0 0 0
53 89 87
0 0 0
34 36 41
58 46 47
0 11 0
20 16 29
1 0 0
0 3 12
0 0 13
0 0 0
43 25 29
0 0 0
27 0 0
0 0 0
0 22 27
41 39 5
0 0 0
0 0 0
16 8 4
35 43 5
0 0 27
5 0 8
2 15 14
17 18 46
0 0 0
0 0 0
0 0 0
242 255 181
0 0 0
199 154 255
80 71 106
74 0 41
0 0 0
0 0 0
0 0 0
0 0 0
0 0 0
0 0 0
0 0 0
0 80 146
0 0 0
255 255 255
0 0 0
255 255 255
0 0 0
255 255 255
0 0 0
255 255 255
0 0 0
208 225 244
0 0 0
250 255 255
0 0 0
211 207 252
0 0 0
223 205 204
0 0 0
152 141 166
0 0 0
148 171 178
0 0 0
95 140 124
0 0 0
69 71 81
0 0 0
54 32 93
0 0 0
0 0 0
41 43 2
0 0 0
11 3 47
0 0 0
12 19 0
24 4 7
0 0 4
10 0 11
0 0 0
36 22 8
0 0 0
1 11 2
7 19 36
23 50 38
20 4 0
7 0 0
0 0 0
92 90 63
0 0 0
36 0 52
49 30 17
87 96 64
0 0 0
0 0 30
77 110 118
0 0 0
43 101 40
0 0 0
225 255 237
0 23 47
255 255 255
255 255 255
255 255 255
0 0 0
255 255 255
0 0 0
255 255 255
0 0 0
255 255 255
0 0 0
214 237 255
0 0 0
187 229 241
0 0 0
255 255 255
0 0 0
238 255 255
0 0 0
201 194 204
0 0 0
186 180 220
0 0 0
173 196 230
0 0 0
174 170 170
0 0 0
91 128 142
0 0 0
100 131 93
0 0 0
83 110 77
0 0 0
84 73 74
48 73 51
0 0 0
32 34 15
0 0 0
0 45 33
0 2 0
5 0 0
0 0 6
0 5 21
18 46 13
0 0 0
0 9 15
6 0 11
4 10 0
0 0 0
0 0 0
0 0 0
0 0 0
17 17 77
32 34 42
5 0 66
0 0 0
0 0 0
0 28 0
167 177 40
0 0 0
255 255 255
255 255 255
159 186 208
0 0 0
125 94 0
0 0 0
0 0 0
0 0 0
0 74 166
0 0 0
255 255 255
0 0 0
182 192 255
0 0 0
140 120 64
0 0 0
255 255 255
0 0 0
255 255 255
0 0 0
230 255 255
0 0 0
255 244 255
0 0 0
255 255 255
0 0 0
255 255 255
0 0 0
175 232 220
0 0 0
197 214 188
0 0 0
138 150 147
0 0 0
111 128 127
0 0 0
74 76 114
0 0 0
0 0 0
26 41 24
0 0 0
8 0 1
0 9 11
0 0 0
28 27 31
0 0 8
0 4 10
0 0 0
46 67 34
0 0 0
25 2 23
16 35 33
93 101 90
0 0 12
76 56 63
0 0 0
11 0 0
63 123 78
2 0 0
137 179 126
70 82 95
0 0 0
106 13 31
255 255 255
0 0 0
47 48 0
0 0 0
255 255 255
0 0 88
255 255 255
255 255 255
255 255 255
255 255 252
255 255 255
0 0 0
255 255 255
0 0 0
255 255 255
0 0 0
142 186 214
108 24 0
144 221 255
0 0 0
255 255 255
0 0 0
255 255 255
0 0 0
255 255 255
0 0 0
240 255 255
0 0 0
198 250 255
0 0 0
187 167 189
0 0 0
169 200 192
0 0 0
102 111 101
0 0 0
67 82 130
0 0 0
35 41 69
20 14 17
2 0 28
15 14 0
0 0 16
0 0 0
25 45 21
0 0 0
40 33 66
0 0 0
35 14 24
0 0 0
39 62 46
1 0 60
0 10 0
14 45 35
0 0 0
0 0 0
2 0 0
85 84 119
0 0 0
255 255 255
89 33 0
180 194 245
0 0 0
255 255 255
0 0 0
0 0 0
0 0 0
255 255 255
0 0 0
255 255 255
0 0 0
0 0 0
0 0 0
0 0 0
0 0 0
0 0 0
0 0 0
177 181 188
0 0 0
255 255 255
0 0 0
85 140 251
0 0 0
255 255 255
0 0 0
255 255 255
0 0 0
255 255 255
0 0 0
255 255 255
0 0 0
255 255 255
0 0 0
249 255 248
0 0 0
178 196 188
0 0 0
125 137 147
0 0 0
102 91 97
0 0 0
46 33 35
0 0 0
0 0 0
32 30 57
0 0 0
7 29 28
0 5 0
0 4 0
42 12 38
0 0 0
39 19 44
0 0 0
49 52 41
0 0 0
56 76 104
18 2 0
131 98 96
37 71 30
66 36 34
50 70 24
239 220 255
0 0 0
163 48 100
57 2 9
0 0 0
0 0 0
0 0 0
0 0 0
0 0 0
0 0 0
0 0 0
66 151 117
0 0 0
255 255 255
255 255 255
255 255 255
179 255 206
255 255 255
216 0 0
255 255 255
0 0 0
255 255 255
0 0 0
255 255 255
0 0 0
255 255 255
0 0 0
255 255 255
0 0 0
255 255 255
0 0 0
255 255 255
0 0 0
255 255 255
0 0 0
255 255 255
0 0 0
206 217 217
0 0 0
201 202 200
0 0 0
154 180 181
0 0 0
115 109 107
0 0 0
74 84 78
0 0 0
17 47 26
0 0 0
52 54 35
0 0 0
59 65 41
0 0 0
40 62 39
0 0 0
85 82 59
44 71 46
0 0 0
83 90 98
0 0 0
77 99 125
0 0 0
71 38 80
0 0 0
255 255 255
0 0 0
255 255 255
0 0 0
7 0 78
0 0 0
255 255 255
0 0 0
255 255 255
94 255 195
255 255 255
128 255 116
0 0 0
0 0 0
0 0 0
255 255 255
255 255 255
0 0 0
255 255 255
135 0 0
255 182 208
0 0 0
255 255 190
0 0 0
255 255 255
0 0 0
255 255 255
0 0 0
255 255 255
0 0 0
255 255 255
0 0 0
255 255 255
0 0 0
238 238 255
0 0 0
160 224 183
0 0 0
160 163 168
0 0 0
69 93 107
0 0 0
47 52 76
0 0 0
0 58 32
15 0 0
42 29 28
0 0 0
62 38 57
0 0 0
81 56 79
0 0 0
77 63 55
0 0 0
93 101 86
0 0 0
42 71 65
0 0 0
0 0 0
50 80 84
92 100 59
77 60 85
0 0 0
35 123 91
0 0 0
106 154 115
117 15 0
255 255 255
0 0 0
255 255 255
255 255 255
255 255 255
0 0 0
255 255 255
0 0 0
255 255 255
0 0 0
255 255 255
255 255 255
255 255 255
255 255 255
255 255 255
0 0 0
255 255 255
0 0 0
0 0 0
0 0 0
235 255 157
0 0 0
255 255 255
0 0 0
255 255 255
0 0 0
255 255 255
0 0 0
255 255 255
0 0 0
220 255 255
0 0 0
255 255 255
0 0 0
208 244 232
0 0 0
140 167 103
0 0 0
95 77 59
0 0 0
3 48 29
0 0 0
0 0 0
0 0 0
70 67 50
0 0 0
50 55 102
0 0 0
79 59 80
0 0 0
64 49 64
0 0 0
71 47 29
0 0 0
79 102 54
71 84 74
103 117 87
2 0 0
0 0 38
163 161 193
0 0 0
97 98 76
0 0 0
211 248 176
0 0 0
255 255 255
0 0 0
255 255 255
0 0 0
255 255 255
0 0 0
255 255 255
255 255 255
0 0 0
0 0 0
0 0 0
255 255 255
255 255 255
0 0 0
0 0 0
255 119 0
255 255 151
0 0 0
255 255 255
0 0 0
255 193 255
0 0 0
255 255 255
0 0 0
255 255 255
0 0 0
255 255 255
0 0 0
255 255 255
0 0 0
218 255 255
0 0 0
172 196 237
0 0 0
122 162 185
0 0 0
64 68 53
0 2 0
0 37 11
43 38 0
0 7 0
39 48 45
0 0 0
80 65 56
0 0 0
57 72 81
0 0 0
64 93 78
0 0 0
112 117 137
0 0 0
104 100 99
0 0 0
253 235 255
0 0 0
117 132 172
0 0 0
114 139 206
0 0 0
255 255 255
0 0 0
255 255 255
0 0 0
255 255 255
0 17 0
213 255 255
0 0 0
0 0 0
255 251 185
255 255 255
0 0 0
255 255 255
255 255 255
255 255 255
255 255 255
0 0 0
0 0 0
255 255 255
255 255 255
55 0 127
0 0 0
0 0 0
255 255 189
194 212 64
0 0 0
255 255 255
9 0 0
146 194 255
0 0 0
227 255 253
0 0 0
255 255 255
0 0 0
255 255 255
0 0 0
255 255 255
0 0 0
255 255 255
0 0 0
144 177 212
0 0 0
157 149 170
0 0 0
124 88 139
0 0 0
79 94 97
0 0 0
124 101 131
0 0 0
115 100 126
0 0 0
98 90 100
0 0 0
106 98 129
0 0 0
52 56 80
41 57 17
0 0 0
51 65 52
30 27 54
69 129 125
0 0 0
109 121 151
0 0 0
106 39 75
0 0 0
0 0 15
0 0 0
255 255 255
0 0 0
0 0 0
0 0 0
0 0 0
0 0 0
71 1 0
0 0 0
255 255 255
255 255 255
0 0 0
255 255 255
255 255 255
0 0 0
0 0 0
0 0 0
255 255 255
198 147 255
255 255 255
86 156 184
255 255 255
0 0 0
0 0 24
0 0 0
255 255 255
0 0 0
77 86 98
0 0 0
0 5 0
0 0 0
0 53 30
0 0 0
7 8 0
0 0 24
0 0 0
52 35 82
0 0 0
122 52 83
0 0 0
106 66 135
0 0 0
150 115 118
20 32 10
0 0 0
13 58 14
0 0 0
62 52 43
0 0 0
42 39 35
0 0 0
71 62 66
0 0 0
0 0 0
0 13 0
0 0 0
68 89 50
33 0 0
102 137 173
0 0 0
0 0 0
255 242 177
255 255 255
174 148 120
255 255 255
0 0 0
0 0 0
0 0 0
85 235 31
255 255 59
0 0 0
0 0 0
0 0 0
255 255 255
255 255 255
255 255 255
0 0 0
0 0 0
255 255 255
0 0 0
255 255 255
255 255 255
255 255 255
255 89 14
0 0 255
0 0 0
0 5 151
0 0 0
255 255 255
0 0 0
255 255 255
0 0 0
126 183 239
0 0 0
255 255 255
0 0 0
217 255 255
0 0 0
54 83 139
0 0 0
77 65 91
0 0 0
65 26 45
0 0 0
15 17 0
10 0 0
1 17 2
180 165 135
0 0 0
225 215 196
0 0 0
211 228 246
0 0 0
255 255 255
0 0 0
255 255 255
0 0 0
255 255 255
0 0 0
255 255 255
0 0 0
255 255 255
0 0 0
255 255 255
0 0 0
133 184 255
0 0 0
0 0 17
0 0 0
0 0 0
0 0 0
255 255 255
255 255 255
255 255 255
255 255 214
255 255 174
255 255 255
255 255 255
255 255 255
0 0 0
255 0 255
255 255 255
255 255 255
0 0 0
0 0 0
0 0 0
0 0 0
0 0 0
0 0 0
255 255 255
255 255 224
255 255 255
0 0 0
255 255 255
0 0 0
96 192 152
0 0 0
46 83 134
0 0 0
0 0 0
0 0 0
42 110 35
0 0 0
62 87 5
0 0 0
80 133 110
0 0 0
91 144 80
0 0 0
118 148 137
0 0 0
0 0 0
184 173 195
0 0 0
167 162 216
0 0 0
170 213 255
0 0 0
232 255 255
0 0 0
255 255 255
0 0 0
149 195 215
0 0 0
0 0 21
0 0 0
0 0 49
0 0 0
127 207 205
0 0 0
0 15 58
0 0 0
255 255 244
0 0 0
0 110 233
0 0 251
0 0 0
255 255 255
0 0 0
255 255 255
255 255 255
255 255 255
0 0 0
255 255 255
255 109 46
0 0 0
0 0 0
255 243 0
255 255 255
0 0 0
255 255 255
255 255 255
255 255 255
255 255 255
203 194 0
0 0 0
0 0 0
0 0 0
55 38 50
0 0 0
194 255 173
0 0 0
146 138 128
0 0 0
204 170 197
0 0 0
151 135 127
0 0 0
151 97 124
0 0 0
164 149 159
0 0 0
188 124 171
0 0 0
161 158 201
0 0 0
172 183 197
0 0 0
161 218 208
0 0 0
88 161 152
0 0 0
79 135 147
0 0 0
0 0 18
0 0 0
0 15 0
107 0 0
0 38 59
181 62 73
0 11 63
255 111 72
0 0 0
255 255 255
0 0 0
255 255 255
0 0 0
255 255 255
0 146 49
255 255 255
0 0 0
255 255 255
255 255 255
255 255 255
255 255 165
255 255 255
0 0 0
0 0 0
0 0 0
0 0 255
255 0 0
255 0 0
255 93 0
255 255 0
255 255 255
0 0 0
0 0 0
0 0 0
0 0 0
0 0 0
130 0 56
0 0 10
197 100 112
0 0 32
163 0 0
0 44 0
255 207 157
0 0 0
224 101 109
0 0 0
251 159 117
0 0 0
255 148 151
0 0 0
242 183 133
0 0 0
246 197 193
0 0 0
212 209 208
255 255 255
0 0 0
255 255 255
0 0 0
255 255 255
0 0 0
255 255 255
0 0 0
255 255 255
0 0 0
255 255 255
0 0 0
255 255 255
0 0 0
255 255 255
0 0 0
255 255 255
0 0 0
255 255 255
0 0 0
255 255 255
0 0 0
255 255 255
0 0 0
255 255 255
0 0 0
255 255 255
0 0 0
255 255 255
0 0 0
255 255 255
0 0 0
255 255 255
0 0 0
255 255 255
0 0 0
255 255 255
0 0 0
255 255 255
0 0 0
255 255 255
0 0 0
255 255 255
0 0 0
255 255 255
0 0 0
255 255 255
0 0 0
255 255 255
0 0 0
255 255 255
0 0 0
255 255 255
0 0 0
255 255 255
0 0 0
255 255 255
0 0 0
255 255 255
0 0 0
255 255 255
0 0 0
255 255 255
0 0 0
0 0 0
212 209 208
0 0 0
246 197 193
0 0 0
242 183 133
0 0 0
255 148 151
0 0 0
251 159 117
0 0 0
224 101 109
0 0 0
255 207 157
0 44 0
163 0 0
0 0 32
197 100 112
0 0 10
130 0 56
0 0 0
0 0 0
0 0 0
0 0 0
0 0 0
255 255 255
255 255 0
255 93 0
255 0 0
255 0 0
0 0 255
0 0 0
0 0 0
0 0 0
255 255 255
255 255 165
255 255 255
255 255 255
255 255 255
0 0 0
255 255 255
0 146 49
255 255 255
0 0 0
255 255 255
0 0 0
255 255 255
0 0 0
255 111 72
0 11 63
181 62 73
0 38 59
107 0 0
0 15 0
0 0 0
0 0 18
0 0 0
79 135 147
0 0 0
88 161 152
0 0 0
161 218 208
0 0 0
172 183 197
0 0 0
161 158 201
0 0 0
188 124 171
0 0 0
164 149 159
0 0 0
151 97 124
0 0 0
151 135 127
0 0 0
204 170 197
0 0 0
146 138 128
0 0 0
194 255 173
0 0 0
55 38 50
0 0 0
0 0 0
0 0 0
203 194 0
255 255 255
255 255 255
255 255 255
255 255 255
0 0 0
255 255 255
255 243 0
0 0 0
0 0 0
255 109 46
255 255 255
0 0 0
255 255 255
255 255 255
255 255 255
0 0 0
255 255 255
0 0 0
0 0 251
0 110 233
0 0 0
255 255 244
0 0 0
0 15 58
0 0 0
127 207 205
0 0 0
0 0 49
0 0 0
0 0 21
0 0 0
149 195 215
0 0 0
255 255 255
0 0 0
232 255 255
0 0 0
170 213 255
0 0 0
167 162 216
0 0 0
184 173 195
180 165 135
0 0 0
118 148 137
0 0 0
91 144 80
0 0 0
80 133 110
0 0 0
62 87 5
0 0 0
42 110 35
0 0 0
0 0 0
0 0 0
46 83 134
0 0 0
96 192 152
0 0 0
255 255 255
0 0 0
255 255 255
255 255 224
255 255 255
0 0 0
0 0 0
0 0 0
0 0 0
0 0 0
0 0 0
255 255 255
255 255 255
255 0 255
0 0 0
255 255 255
255 255 255
255 255 255
255 255 174
255 255 214
255 255 255
255 255 255
255 255 255
0 0 0
0 0 0
0 0 0
0 0 17
0 0 0
133 184 255
0 0 0
255 255 255
0 0 0
255 255 255
0 0 0
255 255 255
0 0 0
255 255 255
0 0 0
255 255 255
0 0 0
255 255 255
0 0 0
211 228 246
0 0 0
225 215 196
0 0 0
20 32 10
1 17 2
10 0 0
15 17 0
0 0 0
65 26 45
0 0 0
77 65 91
0 0 0
54 83 139
0 0 0
217 255 255
0 0 0
255 255 255
0 0 0
126 183 239
0 0 0
255 255 255
0 0 0
255 255 255
0 0 0
0 5 151
0 0 0
0 0 255
255 89 14
255 255 255
255 255 255
255 255 255
0 0 0
255 255 255
0 0 0
0 0 0
255 255 255
255 255 255
255 255 255
0 0 0
0 0 0
0 0 0
255 255 59
85 235 31
0 0 0
0 0 0
0 0 0
255 255 255
174 148 120
255 255 255
255 242 177
0 0 0
0 0 0
102 137 173
33 0 0
68 89 50
0 0 0
0 13 0
0 0 0
0 0 0
71 62 66
0 0 0
42 39 35
0 0 0
62 52 43
0 0 0
13 58 14
0 0 0
0 0 0
150 115 118
0 0 0
106 66 135
0 0 0
122 52 83
0 0 0
52 35 82
0 0 0
0 0 24
7 8 0
0 0 0
0 53 30
0 0 0
0 5 0
0 0 0
77 86 98
0 0 0
255 255 255
0 0 0
0 0 24
0 0 0
255 255 255
86 156 184
255 255 255
198 147 255
255 255 255
0 0 0
0 0 0
0 0 0
255 255 255
255 255 255
0 0 0
255 255 255
255 255 255
0 0 0
71 1 0
0 0 0
0 0 0
0 0 0
0 0 0
0 0 0
255 255 255
0 0 0
0 0 15
0 0 0
106 39 75
0 0 0
109 121 151
0 0 0
69 129 125
30 27 54
51 65 52
0 0 0
41 57 17
52 56 80
0 0 0
106 98 129
0 0 0
98 90 100
0 0 0
115 100 126
0 0 0
124 101 131
0 0 0
79 94 97
0 0 0
124 88 139
0 0 0
157 149 170
0 0 0
144 177 212
0 0 0
255 255 255
0 0 0
255 255 255
0 0 0
255 255 255
0 0 0
255 255 255
0 0 0
227 255 253
0 0 0
146 194 255
9 0 0
255 255 255
0 0 0
194 212 64
255 255 189
0 0 0
0 0 0
55 0 127
255 255 255
255 255 255
0 0 0
0 0 0
255 255 255
255 255 255
255 255 255
255 255 255
0 0 0
255 255 255
255 251 185
0 0 0
0 0 0
213 255 255
0 17 0
255 255 255
0 0 0
255 255 255
0 0 0
255 255 255
0 0 0
114 139 206
0 0 0
117 132 172
0 0 0
253 235 255
0 0 0
104 100 99
0 0 0
112 117 137
0 0 0
64 93 78
0 0 0
57 72 81
0 0 0
80 65 56
0 0 0
39 48 45
0 7 0
43 38 0
0 37 11
0 2 0
64 68 53
0 0 0
122 162 185
0 0 0
172 196 237
0 0 0
218 255 255
0 0 0
255 255 255
0 0 0
255 255 255
0 0 0
255 255 255
0 0 0
255 255 255
0 0 0
255 193 255
0 0 0
255 255 255
0 0 0
255 255 151
255 119 0
0 0 0
0 0 0
255 255 255
255 255 255
0 0 0
0 0 0
0 0 0
255 255 255
255 255 255
0 0 0
255 255 255
0 0 0
255 255 255
0 0 0
255 255 255
0 0 0
211 248 176
0 0 0
97 98 76
0 0 0
163 161 193
0 0 38
2 0 0
103 117 87
71 84 74
79 102 54
0 0 0
71 47 29
0 0 0
64 49 64
0 0 0
79 59 80
0 0 0
50 55 102
0 0 0
70 67 50
42 29 28
0 0 0
0 0 0
3 48 29
0 0 0
95 77 59
0 0 0
140 167 103
0 0 0
208 244 232
0 0 0
255 255 255
0 0 0
220 255 255
0 0 0
255 255 255
0 0 0
255 255 255
0 0 0
255 255 255
0 0 0
255 255 255
0 0 0
235 255 157
0 0 0
0 0 0
0 0 0
255 255 255
0 0 0
255 255 255
255 255 255
255 255 255
255 255 255
255 255 255
0 0 0
255 255 255
0 0 0
255 255 255
0 0 0
255 255 255
255 255 255
255 255 255
0 0 0
255 255 255
117 15 0
106 154 115
0 0 0
35 123 91
0 0 0
77 60 85
92 100 59
50 80 84
0 0 0
0 0 0
42 71 65
0 0 0
93 101 86
0 0 0
77 63 55
0 0 0
81 56 79
0 0 0
62 38 57
0 0 0
0 0 0
15 0 0
0 58 32
0 0 0
47 52 76
0 0 0
69 93 107
0 0 0
160 163 168
0 0 0
160 224 183
0 0 0
238 238 255
0 0 0
255 255 255
0 0 0
255 255 255
0 0 0
255 255 255
0 0 0
255 255 255
0 0 0
255 255 255
0 0 0
255 255 190
0 0 0
255 182 208
135 0 0
255 255 255
0 0 0
255 255 255
255 255 255
0 0 0
0 0 0
0 0 0
128 255 116
255 255 255
94 255 195
255 255 255
0 0 0
255 255 255
0 0 0
7 0 78
0 0 0
255 255 255
0 0 0
255 255 255
0 0 0
71 38 80
0 0 0
77 99 125
0 0 0
83 90 98
0 0 0
44 71 46
85 82 59
0 0 0
40 62 39
0 0 0
59 65 41
0 0 0
52 54 35
0 0 0
17 47 26
0 0 0
74 84 78
0 0 0
115 109 107
0 0 0
154 180 181
0 0 0
201 202 200
0 0 0
206 217 217
0 0 0
255 255 255
0 0 0
255 255 255
0 0 0
255 255 255
0 0 0
255 255 255
0 0 0
255 255 255
0 0 0
255 255 255
0 0 0
255 255 255
0 0 0
255 255 255
0 0 0
255 255 255
216 0 0
255 255 255
179 255 206
255 255 255
255 255 255
255 255 255
0 0 0
66 151 117
0 0 0
0 0 0
0 0 0
0 0 0
0 0 0
0 0 0
0 0 0
57 2 9
163 48 100
0 0 0
239 220 255
50 70 24
66 36 34
37 71 30
131 98 96
18 2 0
56 76 104
0 0 0
49 52 41
0 0 0
39 19 44
0 0 0
42 12 38
0 4 0
0 5 0
7 29 28
0 0 0
32 30 57
20 14 17
0 0 0
46 33 35
0 0 0
102 91 97
0 0 0
125 137 147
0 0 0
178 196 188
0 0 0
249 255 248
0 0 0
255 255 255
0 0 0
255 255 255
0 0 0
255 255 255
0 0 0
255 255 255
0 0 0
255 255 255
0 0 0
85 140 251
0 0 0
255 255 255
0 0 0
177 181 188
0 0 0
0 0 0
0 0 0
0 0 0
0 0 0
0 0 0
0 0 0
255 255 255
0 0 0
255 255 255
0 0 0
0 0 0
0 0 0
255 255 255
0 0 0
180 194 245
89 33 0
255 255 255
0 0 0
85 84 119
2 0 0
0 0 0
0 0 0
14 45 35
0 10 0
1 0 60
39 62 46
0 0 0
35 14 24
0 0 0
40 33 66
0 0 0
25 45 21
0 0 0
0 0 16
15 14 0
2 0 28
0 0 0
35 41 69
0 0 0
67 82 130
0 0 0
102 111 101
0 0 0
169 200 192
0 0 0
187 167 189
0 0 0
198 250 255
0 0 0
240 255 255
0 0 0
255 255 255
0 0 0
255 255 255
0 0 0
255 255 255
0 0 0
144 221 255
108 24 0
142 186 214
0 0 0
255 255 255
0 0 0
255 255 255
0 0 0
255 255 255
255 255 252
255 255 255
255 255 255
255 255 255
0 0 88
255 255 255
0 0 0
47 48 0
0 0 0
255 255 255
106 13 31
0 0 0
70 82 95
137 179 126
2 0 0
63 123 78
11 0 0
0 0 0
76 56 63
0 0 12
93 101 90
16 35 33
25 2 23
0 0 0
46 67 34
0 0 0
0 4 10
0 0 8
28 27 31
0 0 0
0 9 11
8 0 1
0 0 0
26 41 24
48 73 51
0 0 0
74 76 114
0 0 0
111 128 127
0 0 0
138 150 147
0 0 0
197 214 188
0 0 0
175 232 220
0 0 0
255 255 255
0 0 0
255 255 255
0 0 0
255 244 255
0 0 0
230 255 255
0 0 0
255 255 255
0 0 0
255 255 255
0 0 0
140 120 64
0 0 0
182 192 255
0 0 0
255 255 255
0 0 0
0 74 166
0 0 0
0 0 0
0 0 0
125 94 0
0 0 0
159 186 208
255 255 255
255 255 255
0 0 0
167 177 40
0 28 0
0 0 0
0 0 0
5 0 66
32 34 42
17 17 77
0 0 0
0 0 0
0 0 0
0 0 0
4 10 0
6 0 11
0 9 15
0 0 0
18 46 13
0 5 21
0 0 6
5 0 0
0 2 0
0 45 33
0 0 0
32 34 15
0 0 0
0 0 0
84 73 74
0 0 0
83 110 77
0 0 0
100 131 93
0 0 0
91 128 142
0 0 0
174 170 170
0 0 0
173 196 230
0 0 0
186 180 220
0 0 0
201 194 204
0 0 0
238 255 255
0 0 0
255 255 255
0 0 0
187 229 241
0 0 0
214 237 255
0 0 0
255 255 255
0 0 0
255 255 255
0 0 0
255 255 255
0 0 0
255 255 255
255 255 255
255 255 255
0 23 47
225 255 237
0 0 0
43 101 40
0 0 0
77 110 118
0 0 30
0 0 0
87 96 64
49 30 17
36 0 52
0 0 0
92 90 63
0 0 0
7 0 0
20 4 0
23 50 38
7 19 36
1 11 2
0 0 0
36 22 8
0 0 0
10 0 11
0 0 4
24 4 7
12 19 0
0 0 0
11 3 47
0 0 0
41 43 2
58 46 47
0 0 0
54 32 93
0 0 0
69 71 81
0 0 0
95 140 124
0 0 0
148 171 178
0 0 0
152 141 166
0 0 0
223 205 204
0 0 0
211 207 252
0 0 0
250 255 255
0 0 0
208 225 244
0 0 0
255 255 255
0 0 0
255 255 255
0 0 0
255 255 255
0 0 0
255 255 255
0 0 0
0 80 146
0 0 0
0 0 0
0 0 0
0 0 0
0 0 0
0 0 0
0 0 0
74 0 41
80 71 106
199 154 255
0 0 0
242 255 181
0 0 0
0 0 0
0 0 0
17 18 46
2 15 14
5 0 8
0 0 27
35 43 5
16 8 4
0 0 0
0 0 0
41 39 5
0 22 27
0 0 0
27 0 0
0 0 0
43 25 29
0 0 0
0 0 13
0 3 12
1 0 0
20 16 29
0 11 0
0 0 0
34 36 41
0 0 0
53 89 87
0 0 0
71 83 108
0 0 0
121 120 147
0 0 0
164 190 195
0 0 0
170 184 204
0 0 0
179 204 224
0 0 0
202 237 255
0 0 0
255 255 255
0 0 0
231 235 255
0 0 0
243 255 255
0 0 0
167 219 219
0 0 0
255 255 255
0 0 0
255 255 255
0 0 0
255 255 255
0 0 0
255 255 255
255 255 255
59 0 113
57 35 161
145 199 232
0 0 0
0 0 0
0 0 0
198 170 207
0 0 0
0 19 37
12 33 64
27 34 62
0 0 3
0 0 0
72 82 76
64 15 47
0 11 0
3 0 14
13 16 35
24 3 0
6 0 5
4 12 8
17 0 2
0 0 0
0 0 23
0 0 4
4 35 0
7 1 0
0 2 8
8 33 19
0 19 0
43 35 41
19 30 8
0 0 0
36 29 52
0 0 0
67 52 102
0 0 0
84 93 89
0 0 0
117 116 145
0 0 0
130 139 145
0 0 0
203 213 219
0 0 0
167 205 212
0 0 0
208 220 255
0 0 0
239 255 255
0 0 0
211 243 255
0 0 0
241 255 255
0 0 0
255 255 255
0 0 0
162 172 241
0 0 0
255 255 255
0 0 0
0 5 74
0 0 0
0 0 0
0 0 0
0 0 0
0 0 0
0 0 0
10 0 35
230 243 255
0 0 0
0 0 0
0 0 0
0 0 0
0 0 0
65 115 120
37 60 24
0 0 0
0 0 12
0 15 31
36 10 17
0 0 7
36 38 15
0 0 0
10 17 1
0 0 0
20 14 31
0 0 0
2 20 29
0 0 0
9 14 4
0 0 0
0 0 12
0 31 12
0 0 0
0 0 0
22 10 42
0 0 0
79 72 43
0 0 0
75 52 60
0 0 0
94 91 132
0 0 0
93 129 156
0 0 0
150 134 191
0 0 0
167 161 204
0 0 0
211 209 244
0 0 0
236 227 231
0 0 0
219 243 255
0 0 0
233 245 232
0 0 0
183 209 241
0 0 0
255 255 255
0 0 0
255 255 255
0 0 0
255 255 255
50 0 0
255 255 255
255 255 255
45 0 67
0 0 22
194 186 153
0 0 0
0 14 0
0 0 0
153 147 196
0 0 0
0 0 0
112 117 135
16 0 36
0 0 0
15 15 5
11 37 41
18 18 63
12 20 55
0 0 0
0 17 31
0 0 0
41 25 31
0 0 0
41 30 47
0 0 0
39 33 36
0 0 0
13 23 31
0 12 7
17 32 1
4 7 0
9 0 0
5 9 28
0 13 11
15 0 0
5 18 13
0 0 0
39 54 54
0 0 0
94 86 77
0 0 0
119 105 134
0 0 0
129 110 152
0 0 0
154 148 179
0 0 0
178 189 204
0 0 0
155 187 189
0 0 0
209 208 255
0 0 0
250 253 255
0 0 0
255 255 255
0 0 0
255 255 255
0 0 0
255 255 255
0 0 0
186 255 255
0 0 0
0 0 0
0 0 0
0 0 0
154 255 246
0 0 0
0 0 0
40 22 49
0 0 0
72 69 113
0 0 0
9 0 0
36 30 71
0 0 0
0 0 0
0 0 0
44 33 23
0 0 13
0 0 0
1 0 0
0 0 0
0 0 0
0 0 0
0 0 0
28 0 29
0 0 5
48 0 32
0 0 0
26 24 15
0 0 0
18 5 17
0 0 0
23 12 0
4 0 0
0 0 0
0 0 0
0 28 28
0 0 0
50 12 39
0 0 0
29 59 71
0 0 0
82 92 105
0 0 0
131 115 161
0 0 0
134 120 140
0 0 0
168 150 148
0 0 0
179 190 214
0 0 0
166 195 215
0 0 0
246 255 255
0 0 0
200 242 194
0 0 0
245 248 255
0 0 0
255 255 255
0 0 0
255 255 255
0 0 0
255 255 255
107 115 33
255 255 255
255 255 255
0 0 0
158 189 238
254 250 239
101 116 53
95 110 93
0 0 0
116 113 122
0 0 0
0 4 10
101 83 82
8 0 0
0 0 30
0 0 0
28 38 11
3 0 0
45 8 48
0 0 0
5 21 0
0 0 0
58 54 38
0 0 0
48 32 35
0 0 0
47 28 18
0 0 0
40 38 38
0 0 0
10 3 26
0 0 0
6 9 29
0 0 1
0 27 0
0 0 0
13 48 39
0 0 0
44 56 57
0 0 0
68 48 67
0 0 0
67 88 104
0 0 0
116 138 136
0 0 0
118 123 169
0 0 0
167 207 178
0 0 0
180 198 220
0 0 0
175 190 214
0 0 0
222 215 255
0 0 0
255 255 255
0 0 0
255 255 255
0 0 0
156 178 156
0 0 0
157 204 255
0 0 0
0 0 0
0 0 0
0 0 0
255 255 255
0 0 0
0 0 0
0 0 0
0 0 0
18 44 73
0 0 0
84 72 76
15 7 0
6 5 9
0 0 0
0 0 0
25 0 45
1 2 0
7 55 40
0 0 0
40 47 29
0 0 0
11 15 0
0 0 0
30 17 64
0 0 0
45 55 33
0 0 0
39 49 46
0 0 0
18 55 26
0 0 0
1 18 32
0 0 0
13 0 17
4 0 0
0 4 29
0 0 0
48 44 47
0 0 0
62 83 79
0 0 0
89 87 70
0 0 0
90 61 101
0 0 0
145 145 116
0 0 0
112 148 152
0 0 0
160 163 173
0 0 0
164 159 181
0 0 0
201 205 248
0 0 0
230 207 211
0 0 0
174 179 229
0 0 0
255 255 255
0 0 0
255 255 255
0 0 0
255 255 255
245 201 142
101 162 134
255 255 255
0 0 0
44 4 66
255 212 251
25 23 0
0 10 0
0 0 0
106 77 103
39 70 71
17 16 17
0 0 0
5 0 2
66 81 80
0 0 0
33 56 71
0 1 0
48 39 37
0 0 0
34 33 52
0 0 0
50 40 27
0 0 0
47 27 46
0 0 0
44 11 61
20 0 0
0 2 5
0 0 0
44 30 52
0 0 0
44 5 10
0 0 0
0 0 13
3 0 0
19 12 0
0 0 0
37 39 51
0 0 0
68 30 70
0 0 0
68 82 89
0 0 0
99 117 103
0 0 0
80 111 140
0 0 0
134 155 166
0 0 0
151 166 205
0 0 0
153 174 220
0 0 0
144 166 192
0 0 0
176 210 232
0 0 0
153 172 163
0 0 0
249 255 255
0 0 0
98 135 211
0 0 0
0 0 0
59 0 0
0 0 0
255 255 255
0 0 0
0 0 0
0 0 12
40 38 51
64 74 89
0 0 0
8 2 0
33 42 34
32 34 30
0 10 8
0 0 0
21 22 57
0 0 0
46 27 43
0 0 0
40 20 31
0 0 0
53 46 42
0 0 0
26 32 50
0 0 0
21 31 41
0 0 0
51 39 56
0 0 0
25 43 39
0 0 0
0 49 21
0 5 0
4 22 0
0 0 0
10 10 12
0 0 0
14 19 33
0 0 0
45 46 61
0 0 0
83 60 53
0 0 0
71 103 89
0 0 0
101 105 146
0 0 0
101 119 132
0 0 0
112 106 150
0 0 0
115 152 125
0 0 0
177 156 195
0 0 0
163 157 166
0 0 0
148 188 222
0 0 0
235 250 255
0 0 0
255 255 255
18 0 0
255 255 255
192 159 102
0 8 25
255 255 255
0 0 0
178 144 183
255 255 255
113 61 73
24 0 15
0 0 0
46 70 45
11 26 19
0 0 0
49 72 54
0 0 0
51 67 29
0 0 0
38 0 34
0 0 0
25 18 64
0 0 0
49 18 47
0 0 0
60 44 33
0 0 0
12 78 43
0 0 0
9 41 66
0 0 0
35 18 55
0 0 0
18 24 28
0 0 0
0 32 0
12 0 0
11 0 0
11 0 0
37 20 30
0 0 0
30 20 36
0 0 0
50 70 55
0 0 0
80 70 75
0 0 0
83 84 72
0 0 0
96 118 101
0 0 0
103 115 114
0 0 0
121 148 147
0 0 0
113 110 133
0 0 0
115 124 141
0 0 0
142 174 188
0 0 0
165 160 169
0 0 0
155 175 153
0 0 0
13 65 63
0 0 0
0 0 0
72 34 60
0 0 0
255 255 255
0 0 0
0 0 0
0 0 0
10 0 0
12 73 47
0 0 0
0 0 0
17 47 66
0 0 0
26 8 28
0 0 0
23 18 26
0 0 0
65 24 35
0 0 0
50 41 30
0 0 0
36 11 37
0 0 0
32 63 34
0 0 0
39 30 31
0 0 0
48 32 30
0 0 0
34 43 9
0 0 0
13 8 11
13 0 0
0 0 0
10 0 0
0 13 29
0 0 0
21 8 22
0 0 0
25 50 29
0 0 0
19 47 54
0 0 0
59 70 73
0 0 0
76 86 89
0 0 0
88 115 93
0 0 0
109 114 93
0 0 0
79 99 101
0 0 0
129 151 161
0 0 0
100 87 72
0 0 0
107 116 133
0 0 0
161 203 201
0 0 0
230 254 243
39 0 0
255 255 242
255 211 167
0 0 0
255 255 255
0 0 0
169 149 198
159 132 145
110 118 101
29 37 0
0 0 0
83 50 49
34 64 63
0 0 0
10 20 46
0 0 0
94 57 73
0 0 0
36 14 32
0 0 0
49 58 39
0 0 0
0 58 43
0 0 0
22 37 80
0 0 0
29 26 10
0 0 0
28 38 9
0 0 0
17 2 28
0 0 0
15 22 22
0 0 0
16 0 11
24 0 0
0 2 0
0 0 0
18 23 33
0 0 1
3 21 38
0 0 0
58 40 27
0 0 0
55 44 55
0 0 0
60 40 71
0 0 0
52 79 66
0 0 0
82 86 92
0 0 0
69 81 122
0 0 0
102 103 70
0 0 0
76 66 96
0 0 0
139 152 134
0 0 0
72 72 11
0 0 0
87 100 89
0 0 0
0 0 0
0 0 0
0 0 0
159 139 161
0 0 0
255 255 255
0 0 0
0 0 0
0 0 0
0 0 0
6 4 20
0 0 0
1 0 0
20 22 28
15 3 0
45 0 44
0 0 0
0 12 12
0 0 0
21 49 41
0 0 0
14 28 34
0 0 0
46 43 27
0 0 0
50 27 26
0 0 0
22 26 31
0 0 0
50 30 23
0 0 0
17 11 31
0 0 0
20 15 24
0 0 0
0 0 0
0 0 0
7 14 10
0 0 0
7 17 11
0 0 0
19 39 36
0 0 0
22 47 56
0 0 0
62 61 48
0 0 0
49 57 61
0 0 0
30 57 76
0 0 0
42 67 56
0 0 0
65 43 64
0 0 0
114 118 91
0 0 0
55 81 91
0 0 0
57 76 103
0 0 0
137 140 170
0 0 0
183 141 149
94 15 31
255 201 184
255 225 238
0 0 0
255 255 255
0 0 0
199 186 180
175 146 113
153 129 114
64 45 28
0 0 0
70 61 83
39 41 52
0 0 0
12 20 5
0 0 0
52 48 41
0 0 0
44 18 30
0 0 0
38 26 29
0 5 0
12 13 22
0 0 0
40 36 29
0 0 0
16 10 31
0 0 0
11 11 12
0 0 0
11 16 24
0 0 0
0 33 30
0 0 3
5 23 19
9 0 0
0 3 0
0 9 0
0 7 7
0 0 0
37 23 26
0 0 0
31 34 7
0 0 3
35 29 38
0 0 0
37 51 50
0 0 0
34 36 69
0 0 0
58 41 67
0 0 0
43 64 47
0 0 0
42 54 57
0 0 0
26 41 54
0 0 0
86 118 90
0 0 0
62 8 36
0 0 0
83 85 69
0 0 0
0 0 0
0 0 0
0 0 0
255 255 241
0 0 0
255 255 255
0 0 0
0 0 0
0 0 0
0 0 10
26 13 7
0 0 0
0 0 0
0 0 0
0 0 4
36 0 42
0 0 0
12 0 2
6 0 0
24 0 12
0 0 0
14 20 6
0 0 0
0 9 17
0 0 0
20 27 28
0 0 0
3 6 3
0 0 0
0 20 19
0 0 0
5 5 30
9 0 0
0 24 17
0 0 0
2 21 13
0 0 0
0 0 19
0 0 2
0 26 23
0 0 0
8 20 28
0 11 0
8 27 14
0 0 0
43 25 36
0 0 0
30 47 18
0 4 0
21 17 23
0 0 0
49 34 56
0 0 0
16 19 24
0 0 0
40 66 65
0 0 0
62 29 6
0 0 0
34 77 50
0 0 0
101 126 141
0 0 0
138 108 133
80 78 45
224 195 148
255 246 209
0 0 0
0 24 0
0 0 0
227 194 194
220 177 138
157 103 105
75 55 41
0 0 0
65 87 95
17 4 53
20 0 0
0 0 0
0 0 0
34 19 46
22 28 0
0 0 10
0 0 15
0 29 13
0 0 0
2 0 13
0 13 0
34 24 15
0 0 0
17 0 29
0 0 11
0 7 0
0 4 3
34 23 0
0 0 0
19 26 0
0 16 1
13 0 0
26 5 0
24 0 0
11 5 0
22 0 0
0 0 29
8 0 0
0 0 0
8 15 23
0 0 0
3 0 14
0 0 0
10 34 0
0 0 0
15 38 22
0 0 0
29 16 32
0 0 0
2 12 38
0 0 0
42 24 27
0 0 0
0 0 22
0 0 0
24 33 44
0 0 0
25 0 0
0 0 0
17 64 38
0 0 0
0 0 0
0 0 0
0 0 0
255 255 255
252 154 186
255 255 255
0 0 0
0 0 0
0 0 0
0 0 0
39 64 23
0 0 0
0 0 0
0 0 0
0 14 17
0 0 21
0 0 1
0 0 0
12 38 12
0 30 0
0 22 14
0 20 14
5 5 15
0 0 11
5 0 0
1 0 16
0 0 14
28 9 2
1 0 0
0 3 0
4 0 0
16 20 2
17 20 6
6 0 0
0 17 23
0 0 0
