P3
3 3
255
 255  0  0	0  255  0	0  0  255   
 155  0  0	0 155  0	0  0  155 
 100  0  0  	0  100  0    	0 0 100   
  