P3
64 64
255
254 254 254
255 255 255
254 254 254
255 254 254
254 254 254
254 254 254
254 254 255
254 255 255
254 254 254
254 254 254
254 254 255
254 254 254
254 254 254
254 254 254
254 254 254
254 254 255
254 254 254
254 254 254
254 254 254
254 254 254
254 254 254
254 254 255
255 254 254
255 254 255
254 254 254
254 254 254
254 255 255
254 255 254
254 254 255
254 254 254
254 254 254
255 254 255
254 254 254
255 254 255
254 254 254
254 254 254
254 254 254
254 254 254
255 255 255
254 254 254
254 254 255
254 255 255
254 254 254
254 254 254
255 254 254
255 255 255
254 254 254
254 255 254
254 254 254
255 255 254
254 254 254
254 254 254
255 254 254
254 255 254
254 254 254
254 255 254
254 254 254
254 254 255
254 254 254
254 254 254
254 254 254
254 254 254
254 254 255
254 254 255
255 255 255
255 255 255
251 251 251
251 251 250
250 250 250
251 250 250
250 250 250
251 250 249
251 250 250
250 251 250
251 250 251
250 250 250
250 251 250
250 251 250
250 251 250
250 250 250
252 251 250
252 251 251
250 251 251
250 250 250
251 251 251
250 251 250
250 250 249
250 250 249
250 250 250
250 250 250
249 249 249
249 249 249
249 250 249
250 249 250
249 249 249
250 250 250
250 249 250
250 250 249
249 249 248
249 250 248
249 250 249
249 250 248
250 250 249
249 249 248
249 250 249
249 249 249
249 249 248
249 249 248
249 249 248
249 249 248
250 249 248
250 249 250
250 250 250
249 249 249
249 249 250
250 249 250
250 249 249
251 251 250
251 251 250
251 250 250
251 250 250
250 250 250
250 250 250
250 251 250
250 250 249
250 250 249
250 250 249
251 250 249
254 254 254
251 251 250
155 149 136
147 140 129
133 127 114
124 119 107
123 118 108
124 119 108
124 121 110
125 122 111
127 122 113
127 123 114
127 124 112
127 122 112
124 121 111
132 129 118
144 141 131
145 141 131
135 132 121
130 127 117
129 126 116
125 122 113
120 119 108
117 115 103
116 112 97
111 106 89
104 100 84
99 94 80
96 91 78
97 91 79
100 93 80
99 92 79
99 92 79
97 90 77
97 90 76
96 89 76
94 90 74
92 88 75
89 85 72
84 80 70
81 78 69
85 79 70
87 81 71
87 81 71
86 80 72
88 82 73
91 85 75
98 92 78
100 94 81
100 93 80
103 96 84
108 101 90
114 107 95
121 113 101
123 115 103
123 115 103
121 113 101
119 112 101
119 111 101
119 111 101
120 112 101
123 113 102
124 114 102
122 111 99
254 254 254
250 250 251
136 130 117
131 123 111
119 111 99
111 106 93
110 106 95
110 106 95
111 108 96
114 109 99
114 110 99
117 113 102
120 116 105
121 117 106
121 117 106
127 124 112
136 133 122
136 132 121
129 126 115
125 121 110
122 119 108
118 114 105
114 112 101
117 114 102
120 115 101
117 111 96
112 104 91
106 99 87
103 95 84
105 97 86
109 101 89
109 100 88
106 98 86
105 96 84
103 95 82
102 95 80
101 94 79
100 92 79
97 91 78
93 87 76
91 86 75
94 88 76
96 90 79
95 89 78
95 89 79
95 88 78
97 90 79
101 94 81
105 97 82
106 98 85
108 100 86
111 103 89
113 105 92
116 108 95
117 109 96
118 110 97
117 109 97
116 108 97
116 108 97
117 109 98
118 109 98
121 111 100
122 110 100
120 109 97
254 254 254
249 249 249
104 97 83
100 94 79
93 87 72
90 84 70
90 86 71
90 87 72
90 89 73
91 89 74
93 90 78
100 96 85
109 105 94
114 110 99
114 110 99
118 114 103
121 117 107
122 118 107
120 115 103
114 110 99
109 105 94
106 102 90
106 103 91
118 114 100
132 125 111
133 124 111
127 117 104
121 110 100
119 108 100
122 112 103
127 117 107
126 116 106
124 113 103
121 110 98
118 108 95
116 106 93
114 104 91
112 103 89
110 102 88
111 103 90
112 104 92
113 106 92
113 106 92
113 106 92
112 104 92
110 101 89
110 100 87
112 103 88
116 106 91
120 109 94
121 111 96
118 108 93
114 105 90
110 102 87
108 100 86
110 101 87
111 102 89
113 103 91
115 105 94
116 106 95
117 107 95
119 107 95
119 108 95
119 107 95
255 254 255
249 250 249
102 94 80
98 91 76
93 86 70
92 85 69
93 88 72
95 91 74
94 90 74
93 90 75
93 89 76
98 94 82
106 102 90
109 107 95
108 105 93
109 106 94
111 106 97
111 107 97
111 108 96
108 105 94
104 102 90
102 98 85
104 100 87
120 114 101
139 132 119
145 135 125
142 130 120
138 126 118
136 124 118
137 127 119
139 128 120
140 129 120
137 126 117
135 124 114
133 122 110
131 120 109
129 118 105
126 115 102
125 114 101
127 117 104
130 120 108
132 123 109
131 125 110
130 123 110
130 121 109
128 117 106
127 115 102
127 116 103
129 120 103
131 121 105
132 122 106
129 118 103
123 111 97
114 103 90
108 98 84
107 97 83
108 98 85
113 101 89
114 103 92
116 105 94
118 106 95
119 107 95
119 108 96
118 106 94
255 254 255
250 250 249
122 115 99
118 111 95
114 106 89
114 106 89
118 109 94
119 111 95
119 111 95
116 109 94
111 106 92
109 105 92
111 107 94
110 105 93
104 101 88
102 99 87
104 100 90
106 102 92
108 103 93
108 104 94
108 104 92
104 101 88
105 101 87
121 116 103
144 136 125
155 145 137
158 146 138
156 144 140
151 141 137
148 138 133
147 137 130
147 137 128
147 137 129
147 137 128
146 136 126
145 135 125
143 133 123
138 129 117
136 127 114
140 130 117
143 134 122
143 137 126
144 139 127
145 139 128
144 137 127
143 135 125
143 134 124
144 134 122
143 133 121
142 132 118
141 130 117
140 128 115
136 124 110
127 113 101
117 104 93
110 99 87
108 96 84
111 100 88
116 103 92
119 106 95
121 108 97
122 110 99
123 111 99
119 107 95
255 254 254
250 250 250
137 129 112
134 125 109
129 120 103
128 118 102
132 122 105
134 124 107
135 124 109
131 123 107
127 119 106
125 118 103
123 116 102
119 113 98
112 108 93
109 104 91
107 103 91
105 102 91
106 103 93
106 102 91
104 100 89
100 97 84
102 98 84
118 113 102
143 134 124
158 148 140
164 154 146
162 151 146
157 146 143
152 143 139
150 142 135
149 142 134
149 141 133
149 141 134
150 141 133
151 142 134
150 141 134
146 138 129
144 136 125
145 136 125
145 138 127
147 140 131
147 142 134
147 143 134
147 142 134
148 142 133
150 142 133
150 142 134
150 142 132
147 139 129
145 136 125
146 134 123
143 130 117
134 121 110
126 113 102
116 104 93
112 100 89
115 103 91
118 106 93
121 108 97
122 109 98
123 111 99
122 110 100
119 107 96
254 254 254
252 250 250
145 135 121
143 132 117
138 126 111
136 124 109
138 126 110
140 127 112
141 129 112
140 129 113
139 130 114
138 130 114
136 129 113
134 127 111
130 124 107
126 119 104
118 112 100
114 108 98
109 105 94
104 101 90
101 97 86
94 91 80
94 91 80
111 106 96
136 128 119
155 144 137
164 152 146
159 148 143
151 141 137
149 142 138
153 145 138
149 143 136
146 139 132
146 138 132
146 140 133
150 143 137
153 146 139
152 145 137
149 143 134
143 137 127
140 134 124
140 134 127
141 135 129
142 137 130
144 138 132
144 139 132
146 141 134
149 143 137
151 145 137
149 144 135
147 141 131
144 136 125
142 132 119
141 129 117
135 122 111
125 113 102
121 109 98
123 110 99
124 112 100
123 111 99
122 111 98
122 109 98
120 107 97
118 106 95
255 254 254
251 250 250
148 138 125
146 133 120
139 126 112
136 123 108
138 124 109
137 125 110
138 126 111
139 128 114
141 131 117
141 133 117
140 132 117
141 132 117
140 132 116
135 128 113
129 123 109
123 118 106
117 112 100
110 106 94
105 99 88
97 92 83
92 89 80
106 100 92
129 120 112
149 139 131
161 151 143
157 147 141
149 141 136
152 144 139
156 149 143
153 146 140
148 141 135
144 140 133
145 141 135
149 145 139
154 149 142
155 150 142
152 146 139
144 139 131
140 133 125
139 133 125
140 134 128
141 136 130
142 137 129
142 137 131
145 139 133
147 143 138
149 145 139
149 146 138
147 145 134
145 140 128
143 135 123
142 132 120
139 127 116
132 121 110
129 118 105
131 120 106
130 120 106
128 116 103
123 112 100
118 108 95
114 103 93
114 103 92
255 255 254
252 250 251
147 137 125
141 131 118
132 122 109
130 119 105
131 120 107
131 120 106
131 120 106
132 122 108
136 126 113
137 128 114
137 129 115
139 130 116
142 134 119
140 133 120
137 130 118
134 128 114
129 122 109
123 117 105
117 111 100
106 100 90
97 93 85
103 98 90
120 113 104
140 131 123
155 146 137
156 149 141
153 146 139
156 152 145
162 155 149
158 152 145
151 145 140
148 144 138
146 143 138
148 147 142
152 148 144
152 150 144
151 147 141
147 140 133
141 135 128
141 135 128
143 136 130
140 135 128
139 135 129
140 136 129
142 138 131
143 140 134
145 142 136
146 145 137
146 144 135
147 143 132
145 139 126
142 135 122
141 130 118
138 126 114
135 125 111
138 128 114
138 129 114
133 123 109
124 114 102
112 103 90
108 97 86
109 99 87
254 254 255
251 251 251
146 138 127
141 132 120
132 121 109
127 117 105
128 118 106
129 118 105
126 116 104
127 117 105
131 122 109
132 123 111
132 123 110
135 126 114
139 131 119
140 132 120
140 132 118
137 130 117
134 127 114
132 125 112
127 120 109
118 112 102
108 102 93
106 100 91
111 106 97
128 122 113
147 140 132
154 148 140
154 151 144
158 154 148
160 155 151
155 150 146
148 144 138
144 140 136
142 140 135
141 140 137
143 142 138
145 144 141
146 143 138
144 139 133
141 136 129
141 137 129
140 136 129
137 133 126
135 132 126
137 132 125
136 133 126
136 134 128
137 137 130
140 138 132
140 139 132
144 140 131
143 138 128
143 134 124
140 130 119
136 127 113
134 125 111
135 126 112
134 125 110
131 122 108
124 115 102
111 101 88
103 94 82
104 94 82
254 254 254
251 251 250
149 141 132
143 135 126
132 124 114
127 120 108
129 120 110
128 118 107
124 116 105
124 116 105
128 117 107
128 118 108
128 118 107
131 121 111
133 125 114
135 127 115
134 126 114
135 127 114
136 128 116
137 130 117
139 130 118
133 125 113
124 116 107
110 105 96
104 99 91
117 112 105
138 134 127
151 148 141
156 153 147
155 154 149
151 150 146
145 142 140
139 135 131
135 132 129
133 132 129
132 131 129
134 133 129
134 134 132
138 135 132
139 137 132
141 137 131
138 135 128
136 133 126
132 130 122
130 129 120
130 127 120
129 126 120
129 126 119
130 126 121
130 128 123
133 131 126
139 134 128
141 137 127
142 134 124
138 130 118
130 123 111
126 119 105
126 116 103
125 115 102
127 117 103
121 112 99
111 101 89
104 94 82
99 90 78
254 254 254
252 251 250
151 144 136
144 138 130
134 127 119
131 124 114
129 123 114
128 122 111
126 119 108
125 118 107
126 119 108
126 117 107
125 116 106
127 118 108
128 121 109
130 123 111
132 124 112
135 127 115
137 129 118
141 132 121
143 134 123
141 133 122
134 126 115
117 111 102
103 98 91
113 107 102
130 126 120
145 142 137
153 151 147
150 150 146
142 142 140
134 134 131
129 128 125
125 125 122
124 124 122
124 123 121
125 125 122
125 125 122
129 128 125
136 135 130
140 138 132
138 138 131
133 133 125
128 128 120
124 123 116
122 120 114
123 120 114
125 122 117
128 124 119
130 127 122
132 129 125
138 135 128
141 136 129
141 136 127
138 132 122
128 122 112
121 114 104
117 108 97
116 109 96
121 112 100
120 111 98
113 104 93
107 98 87
97 89 77
254 254 254
251 251 250
152 144 139
146 139 134
138 131 124
133 127 119
131 126 117
130 125 116
129 124 114
128 122 113
128 121 111
126 119 109
125 117 107
125 117 106
125 118 107
128 121 110
132 125 114
136 128 117
139 131 121
142 133 124
144 135 126
144 135 125
141 132 121
125 118 108
108 103 96
110 105 100
124 120 115
138 135 131
147 145 141
144 143 139
133 134 131
126 126 123
121 120 117
118 117 115
117 116 114
116 117 114
117 117 115
118 118 115
124 122 121
133 132 128
140 140 134
141 139 133
134 134 127
126 126 118
121 119 112
117 114 109
118 115 110
124 121 117
131 128 123
134 131 127
137 134 129
139 136 130
140 137 131
142 138 131
138 134 126
130 124 117
120 114 107
113 105 97
112 104 94
118 110 98
121 112 100
118 109 99
110 102 92
98 91 80
254 255 255
252 251 251
153 147 143
149 143 139
141 135 130
135 131 124
132 128 121
129 127 118
129 127 117
130 125 118
131 125 117
131 125 117
131 125 116
129 123 114
128 122 112
131 124 115
134 130 119
140 133 123
143 135 128
144 137 128
145 135 128
145 137 128
143 136 125
130 124 114
114 109 101
110 106 100
118 112 109
130 126 123
142 140 136
143 142 138
138 137 132
128 128 124
122 121 118
118 117 115
118 116 114
115 115 113
115 115 113
117 117 114
123 122 120
134 133 129
142 141 138
142 141 136
136 136 130
128 129 122
123 122 116
122 120 114
125 122 117
131 128 124
136 135 130
138 135 132
137 136 131
137 136 131
137 136 130
137 136 131
135 133 127
132 127 122
128 121 117
122 113 108
121 111 105
125 117 107
126 118 107
123 114 104
115 107 96
100 94 82
254 254 254
252 252 252
155 152 149
151 147 143
143 139 136
137 133 128
131 129 123
129 126 119
126 125 119
130 127 120
134 132 124
138 135 126
139 135 127
137 133 126
135 131 123
137 131 124
139 134 127
145 139 131
150 143 137
148 141 135
144 137 131
144 138 129
145 137 127
134 129 118
120 116 106
110 107 100
109 107 101
122 119 114
140 135 131
147 143 138
146 143 138
138 136 130
126 125 120
124 122 120
121 121 120
120 119 117
118 118 117
120 121 117
127 127 123
137 136 132
144 144 140
143 142 138
139 138 134
133 132 127
131 129 125
134 132 127
140 136 131
143 139 135
142 139 135
139 138 134
136 135 132
134 133 130
133 132 128
130 130 125
130 130 125
135 132 127
137 131 127
136 128 124
136 126 121
138 128 121
135 126 117
128 119 110
119 110 100
105 98 87
254 254 254
252 251 252
152 148 146
148 145 143
141 139 135
137 133 130
131 129 125
127 127 122
128 127 121
132 129 124
138 135 129
142 139 132
145 142 134
146 141 135
143 139 132
142 138 133
144 139 134
149 144 138
153 149 143
153 149 143
149 144 139
147 143 135
145 140 131
137 133 123
125 122 112
114 111 103
106 104 98
117 113 108
134 129 124
145 140 133
148 143 135
139 135 127
130 128 120
127 126 121
127 127 125
124 124 122
123 123 122
126 126 122
133 132 127
142 141 136
148 147 144
148 147 144
144 144 140
138 138 135
137 136 131
143 141 137
148 146 141
148 144 141
144 141 137
137 137 135
135 135 131
134 133 130
131 131 128
127 127 122
128 127 122
134 131 128
139 134 130
139 133 130
142 134 131
143 136 130
141 132 125
132 124 115
124 115 106
114 106 96
254 254 254
251 251 251
144 142 138
142 140 136
138 136 132
134 132 128
132 130 125
129 128 124
130 129 124
133 131 126
140 136 131
144 141 134
148 145 137
150 146 140
151 147 141
149 146 139
149 145 139
151 149 142
156 155 148
157 155 149
155 152 147
152 149 142
148 144 136
140 137 128
130 128 119
117 115 108
108 107 101
115 112 105
130 124 117
139 132 124
142 136 126
137 132 122
129 125 116
130 128 121
131 130 126
130 129 128
129 128 127
133 131 128
138 137 132
145 145 140
151 151 145
152 152 148
150 149 145
142 142 139
140 140 136
147 146 142
152 150 146
147 144 141
141 139 137
135 135 132
133 134 131
135 134 130
133 132 127
127 126 121
126 124 120
132 128 125
137 131 127
140 133 131
143 136 133
146 139 136
143 137 132
136 128 121
130 122 114
126 117 109
254 254 254
250 250 250
141 139 135
139 138 133
135 134 130
133 131 128
129 128 124
129 128 124
130 129 125
133 132 128
138 136 131
144 141 135
147 144 138
150 148 140
151 148 142
151 149 143
151 148 143
152 150 145
153 152 148
154 152 148
152 150 146
149 148 142
147 144 138
144 139 133
136 133 126
126 123 117
117 115 110
120 117 111
129 124 115
133 127 117
135 127 116
131 125 114
128 123 112
128 126 117
130 129 123
130 129 126
131 131 128
135 133 131
139 138 134
144 143 139
148 147 143
151 148 146
148 147 143
141 140 136
138 137 133
143 142 138
146 145 141
142 141 138
138 137 133
135 135 131
134 134 129
137 134 127
134 132 125
129 128 120
129 127 120
135 130 126
140 133 132
143 137 134
146 141 138
149 143 140
147 141 137
141 133 127
137 128 122
138 129 123
254 254 254
251 251 250
141 139 136
138 137 132
135 134 129
132 130 126
129 127 123
127 126 122
130 129 125
133 131 129
137 135 132
141 139 135
145 142 137
147 144 139
148 145 141
150 147 143
153 150 146
152 149 145
150 148 145
147 145 143
146 145 142
146 144 140
147 143 139
145 141 138
142 138 134
136 132 128
130 128 123
129 127 121
132 128 119
132 124 113
129 119 108
129 120 108
128 121 111
127 124 114
128 125 117
129 127 122
132 129 125
135 132 130
139 136 132
141 139 134
144 140 137
144 140 138
141 139 135
137 136 131
134 133 129
135 134 130
137 136 133
137 135 131
136 134 130
136 135 130
137 136 129
137 133 125
136 131 122
132 130 120
133 132 123
140 135 132
145 138 136
149 143 140
151 147 144
153 148 144
149 144 140
144 136 132
143 133 128
146 138 134
254 254 254
251 252 250
144 142 137
141 140 134
135 134 129
131 129 124
128 127 121
126 125 120
129 127 123
133 131 129
137 136 132
140 138 135
142 141 138
143 142 136
141 140 135
144 142 138
148 146 142
150 148 145
149 146 144
147 145 143
146 143 142
146 144 140
146 144 140
146 143 139
144 141 138
142 139 137
138 137 133
137 136 131
137 134 125
132 126 114
129 119 105
127 118 105
128 122 110
129 124 112
129 126 116
129 124 117
127 124 118
129 126 120
133 129 123
134 130 125
135 131 127
135 132 128
135 133 128
133 131 127
131 130 125
131 130 125
131 129 125
132 130 125
133 130 126
134 132 127
137 133 126
136 133 121
136 131 119
135 131 118
135 132 122
142 137 132
146 141 138
150 145 141
151 147 140
148 145 138
144 140 133
140 134 128
140 133 128
144 137 132
254 254 255
252 251 250
147 144 139
143 140 135
135 133 127
130 127 121
126 124 117
125 124 117
128 127 122
132 130 126
136 134 131
137 137 134
139 140 135
137 138 132
134 134 127
136 135 129
143 140 135
148 144 141
151 147 144
149 146 144
147 144 141
145 143 140
146 144 141
144 143 140
143 141 138
142 141 139
142 141 141
142 141 138
141 137 130
135 130 117
129 122 106
127 121 105
128 123 108
130 126 114
130 127 116
126 122 113
122 118 109
122 118 109
125 121 111
126 123 114
128 124 118
129 125 120
130 128 122
131 128 124
131 128 124
130 127 122
128 126 121
128 126 121
129 128 122
131 129 122
133 130 122
136 131 119
136 130 117
134 129 115
134 131 118
139 136 128
144 140 134
146 142 134
145 141 131
140 136 126
136 131 122
132 128 118
132 127 118
134 129 121
254 254 255
251 251 250
145 141 136
139 136 131
132 128 123
126 123 116
124 121 114
125 121 114
128 125 119
131 129 122
133 133 127
134 134 129
134 134 129
133 132 125
130 130 123
130 130 124
134 133 127
141 138 134
147 142 138
145 143 138
142 139 135
141 138 134
141 140 134
140 139 133
138 138 132
137 137 133
138 137 135
140 137 134
140 136 128
137 129 118
130 123 108
128 121 106
129 123 109
129 124 111
127 124 111
123 120 107
119 115 103
120 116 105
122 119 108
125 121 112
127 122 116
127 123 118
129 125 120
132 128 124
133 130 125
131 129 124
129 127 122
129 126 122
128 126 121
129 126 119
131 127 118
133 127 115
133 127 112
130 125 110
129 126 110
133 129 118
136 133 122
138 135 122
136 133 118
131 128 113
126 123 109
123 119 106
123 118 107
125 120 107
254 254 254
250 250 250
139 135 128
133 130 123
125 122 115
121 117 111
122 117 110
123 119 110
126 122 112
130 126 115
131 129 120
131 129 119
128 127 118
128 126 118
126 126 117
126 125 117
128 125 119
132 129 122
137 133 127
135 133 125
133 130 123
132 129 123
133 131 123
132 132 124
131 130 122
129 128 122
129 126 123
131 127 122
135 129 121
131 125 114
128 121 108
127 121 107
127 122 107
125 121 107
123 119 105
120 117 103
120 117 104
121 117 105
124 120 109
127 123 115
129 125 118
129 126 120
130 127 121
134 131 125
136 132 126
134 131 125
133 129 124
131 128 123
130 127 120
128 125 118
128 124 115
130 124 113
128 122 108
123 119 103
121 118 101
123 120 105
125 122 106
128 124 105
127 123 104
122 119 100
119 114 95
116 111 95
116 109 95
117 111 94
254 254 254
251 250 251
133 131 122
129 126 118
121 118 110
119 115 107
122 117 109
122 118 107
122 117 105
123 118 106
126 121 109
125 120 108
123 118 107
124 121 109
125 122 112
124 121 111
121 118 109
123 120 111
125 121 112
123 119 109
119 115 106
120 115 105
122 117 107
123 118 108
122 118 109
121 116 108
118 114 107
118 114 106
119 114 106
120 114 103
119 114 102
122 117 106
125 121 107
125 121 107
123 120 106
122 120 105
123 119 107
125 121 109
128 123 114
132 126 118
132 128 122
131 128 121
132 128 121
134 130 123
134 131 124
133 129 123
131 128 122
132 127 122
131 128 120
129 126 118
127 124 114
126 121 111
122 117 104
117 112 98
114 110 94
113 110 95
114 111 94
117 112 95
118 114 94
118 112 92
116 111 91
115 110 91
114 109 88
111 106 86
255 254 255
250 250 250
130 128 118
127 125 115
121 118 108
119 115 106
122 118 108
121 116 106
117 112 100
118 111 98
119 112 99
120 113 100
119 112 100
121 115 104
124 120 108
123 118 106
119 113 102
117 111 100
117 112 99
114 108 96
111 104 93
111 104 91
114 105 94
117 107 96
116 108 97
114 106 97
111 104 96
108 102 93
106 102 91
108 103 93
111 107 96
117 113 101
123 119 107
126 122 110
127 123 111
126 122 110
126 122 111
131 124 115
133 128 121
134 130 122
134 130 123
133 130 121
132 129 120
131 129 119
131 128 119
130 126 118
129 125 119
129 125 119
129 125 119
128 125 117
126 122 112
121 116 106
116 111 99
112 108 94
109 106 90
107 104 88
106 103 88
109 104 89
112 107 90
116 109 91
118 111 91
119 113 91
116 110 88
109 104 83
254 254 254
250 250 250
131 129 119
128 126 116
124 121 111
123 120 109
124 120 111
121 117 107
117 112 100
115 110 97
116 109 97
118 110 98
121 113 101
124 117 103
126 120 106
124 118 104
120 114 100
120 112 98
121 113 97
121 112 97
121 112 96
120 110 95
120 109 94
121 109 94
121 109 95
118 107 94
113 103 91
110 101 89
109 102 90
110 104 91
113 107 95
115 110 99
118 114 104
124 120 111
130 125 116
131 127 117
133 127 119
135 129 121
137 130 125
136 131 125
134 131 123
132 130 120
131 129 118
129 126 115
129 125 114
127 123 115
126 122 115
126 122 117
125 121 114
123 118 111
119 115 105
114 111 99
113 109 95
111 108 92
109 106 91
105 102 88
104 101 88
108 103 90
112 106 92
117 110 94
120 113 94
121 114 94
118 112 92
113 106 88
255 254 254
251 250 251
134 131 121
132 129 118
128 126 115
126 123 113
125 122 112
123 118 108
118 114 103
116 111 100
116 109 98
119 111 101
125 117 104
127 121 106
127 120 105
125 118 104
124 116 101
126 116 101
128 117 101
133 121 104
135 125 107
135 123 107
132 119 103
130 117 99
130 115 99
125 111 96
120 106 92
119 106 93
121 110 97
122 112 99
124 114 102
118 111 100
116 112 102
122 118 109
130 126 119
135 130 122
137 131 124
138 133 126
139 132 128
136 131 126
134 131 123
131 128 120
129 127 117
126 124 114
125 122 111
124 121 112
123 119 111
123 119 112
122 116 109
116 111 104
112 109 97
111 108 94
110 108 91
113 110 94
112 109 93
108 104 91
108 102 93
112 105 96
116 109 98
119 112 99
121 114 99
122 115 97
122 114 98
118 111 97
254 254 254
251 250 251
135 133 121
133 131 119
129 126 113
125 121 109
121 117 107
118 114 104
116 112 103
115 110 100
115 108 100
118 111 101
123 116 104
124 117 104
123 116 103
122 116 102
123 117 101
124 116 101
126 117 101
131 121 104
137 126 110
138 128 110
138 127 108
137 123 106
132 117 100
130 113 97
127 110 96
128 112 98
132 117 103
137 124 110
139 126 112
130 121 109
121 113 103
123 117 109
127 122 115
132 128 121
135 131 123
138 131 126
137 130 125
135 129 123
131 128 120
129 126 117
128 125 114
126 123 112
125 121 111
122 117 108
120 116 107
119 114 106
118 113 104
114 110 98
112 109 96
111 107 93
111 108 94
114 109 94
115 109 95
112 107 96
112 106 97
114 107 99
116 109 100
118 111 101
119 113 100
121 113 100
122 114 102
124 115 104
255 255 255
250 250 250
134 132 119
132 129 116
126 123 110
122 118 106
118 113 103
116 112 102
116 112 102
116 111 101
115 109 100
116 110 100
118 113 102
118 113 101
116 111 99
116 111 100
117 112 99
118 112 99
121 113 99
124 117 101
129 121 105
136 126 109
140 129 112
137 125 108
130 117 101
129 113 99
130 113 99
135 118 103
143 125 112
151 134 120
155 138 124
144 130 116
130 119 107
123 115 106
123 117 110
127 123 115
132 129 120
133 129 121
133 128 122
131 127 120
130 125 119
127 124 115
126 123 112
124 121 110
122 118 108
119 115 105
117 112 103
117 112 102
116 111 100
115 112 98
115 111 96
114 110 96
114 110 97
116 110 97
117 110 98
118 110 101
117 110 103
117 110 102
116 109 101
115 109 100
116 110 100
118 112 102
123 115 105
129 120 111
254 255 255
251 251 251
129 126 115
127 123 113
122 119 108
121 117 106
120 115 106
121 116 107
120 116 106
119 115 105
117 112 103
115 110 100
114 110 101
113 109 98
112 107 96
110 106 95
111 106 95
110 105 94
113 108 95
115 109 96
120 113 100
127 120 105
134 125 110
132 121 107
126 114 100
125 111 98
130 114 101
138 122 107
148 132 118
158 141 127
162 145 129
153 137 122
138 125 111
127 116 106
121 113 105
124 119 111
129 125 115
131 127 119
132 128 121
130 125 119
127 123 116
125 121 112
123 119 109
120 116 105
118 113 104
115 111 101
115 111 101
115 111 100
118 113 102
119 115 101
120 115 101
117 112 100
118 112 101
120 113 102
122 115 104
123 115 106
122 114 105
117 111 103
116 107 101
115 108 101
115 108 100
118 110 103
125 116 107
136 125 117
254 254 254
250 251 251
128 124 114
126 121 112
121 117 108
122 117 108
124 121 111
126 122 112
127 123 114
125 121 111
121 117 107
117 114 104
114 111 101
112 108 99
110 107 96
109 105 94
105 101 90
106 102 91
106 103 91
108 105 93
113 108 96
120 114 102
126 118 105
126 117 104
122 112 99
122 111 99
129 116 101
139 125 112
152 138 124
161 145 129
164 146 129
156 139 123
141 126 111
130 117 105
122 112 101
122 115 106
126 122 112
130 125 117
130 126 120
128 124 117
126 121 113
123 119 110
119 114 104
115 111 101
112 108 98
110 106 96
111 107 97
116 111 102
120 114 104
125 120 107
125 120 107
122 116 106
120 114 105
125 117 109
128 118 110
128 119 108
124 116 105
119 110 102
115 107 100
116 107 100
119 110 102
123 113 106
132 121 112
143 130 122
255 255 254
251 251 251
135 130 122
133 127 119
128 122 113
126 120 113
127 122 113
130 127 117
135 131 121
133 128 119
129 125 115
124 120 111
121 117 107
117 114 105
115 112 104
112 108 98
108 105 95
106 103 94
109 106 95
110 107 96
114 111 99
117 112 102
120 113 103
121 113 101
123 113 101
125 115 100
131 119 105
141 129 113
151 140 124
161 146 131
162 146 129
154 137 121
141 126 110
131 117 104
124 112 100
121 112 102
120 114 105
122 117 110
124 120 112
125 119 112
122 117 109
118 114 104
114 109 100
108 104 95
105 101 92
105 101 91
110 104 95
116 109 101
124 117 107
129 122 111
132 125 114
128 121 112
127 119 111
129 120 111
129 119 110
129 118 108
125 115 105
122 110 105
120 109 105
123 113 105
128 116 108
136 124 116
144 131 123
154 138 131
254 254 255
251 250 250
147 140 131
142 135 127
136 127 120
131 124 115
131 125 115
135 129 119
141 134 125
142 134 125
138 130 121
135 128 117
131 126 116
127 124 115
124 121 112
120 117 109
116 112 103
115 111 102
115 113 102
117 115 104
120 117 106
120 115 105
119 113 103
121 115 103
125 119 105
129 121 106
135 125 108
143 131 117
153 139 126
158 144 130
159 142 127
149 132 117
136 121 105
130 115 101
125 113 100
118 110 99
115 109 100
115 110 102
116 112 104
117 113 104
118 112 103
114 110 101
110 106 96
104 101 90
101 98 87
103 98 88
109 103 93
120 111 104
129 120 111
138 127 119
140 130 121
139 129 119
135 126 117
134 123 114
131 120 111
129 117 108
128 115 107
126 114 107
127 115 110
131 119 110
138 125 116
149 135 126
158 142 134
161 144 137
254 254 254
251 251 251
153 143 134
148 139 130
139 129 120
135 127 117
137 128 117
140 132 122
144 135 125
147 136 126
146 136 127
145 135 127
144 136 128
140 135 126
135 132 122
132 128 118
131 126 115
130 124 114
129 127 115
129 127 115
128 128 117
127 124 114
126 122 112
129 125 113
132 127 115
134 128 114
138 130 114
146 134 119
154 141 126
157 143 128
151 138 122
141 128 112
131 116 101
126 113 99
123 111 99
118 109 98
111 105 96
109 104 96
108 104 96
111 106 97
111 107 97
110 106 96
108 104 94
103 100 89
103 97 87
106 100 90
114 106 98
127 117 109
140 127 119
150 137 129
155 142 134
150 139 130
147 134 125
142 129 120
138 125 115
137 123 114
136 122 115
134 120 113
136 122 114
141 126 118
147 132 123
157 139 131
163 143 135
160 142 133
254 254 254
252 250 250
152 141 131
147 136 126
139 127 117
136 125 115
140 129 118
141 131 119
142 131 119
144 132 121
148 135 125
149 137 128
152 142 132
150 142 133
143 138 129
142 137 126
143 136 123
144 137 125
143 138 127
141 137 127
136 134 124
133 132 122
132 129 120
133 131 120
136 134 122
138 133 121
140 133 119
148 139 125
157 143 129
153 140 124
144 134 117
133 122 105
125 113 97
122 109 96
122 110 98
115 106 96
110 103 93
105 100 91
102 97 89
104 99 90
107 103 93
108 103 93
108 104 94
106 103 92
107 102 92
115 107 98
124 114 105
136 124 116
148 134 126
159 146 137
164 150 141
161 148 139
155 141 133
151 136 128
147 132 123
145 130 123
144 129 120
142 127 119
145 129 121
149 134 125
156 138 129
161 142 132
162 141 131
156 137 128
254 254 255
252 250 250
141 131 122
138 127 117
132 120 110
131 118 109
136 123 113
135 122 112
132 120 109
131 121 109
135 125 113
140 130 119
146 138 127
147 139 130
144 138 128
145 136 125
148 137 125
151 140 129
152 145 132
148 143 130
140 138 125
133 131 119
130 126 116
131 128 117
136 133 121
140 135 124
144 139 126
152 142 129
157 145 130
150 140 122
139 129 111
130 120 101
124 111 96
121 108 94
117 106 95
112 103 93
108 100 91
101 94 86
98 93 83
101 94 86
104 98 88
107 101 91
109 104 94
113 107 98
119 111 103
127 117 108
136 124 114
146 132 123
154 138 129
161 145 137
164 148 139
162 147 139
160 145 137
158 142 134
155 138 130
151 137 128
149 134 125
147 132 122
150 134 125
157 142 132
162 143 133
162 143 133
160 140 130
153 135 125
254 255 254
251 250 250
134 122 114
132 120 112
127 113 104
125 111 104
129 116 107
127 115 106
121 113 103
121 113 102
124 117 105
131 123 111
139 132 120
141 135 123
143 135 122
144 134 123
148 135 125
153 141 128
156 145 133
151 143 130
142 137 124
134 128 115
127 121 109
128 123 110
134 128 116
141 135 123
149 142 130
154 146 133
155 147 131
148 139 122
137 128 109
129 118 100
123 110 96
118 105 93
114 102 92
109 99 89
103 95 86
98 91 82
97 90 81
100 92 83
105 96 88
107 100 91
112 106 97
123 116 106
134 123 114
140 128 120
148 133 125
154 138 129
159 140 132
159 142 133
159 141 134
159 142 135
162 143 138
162 143 136
160 141 134
154 138 129
150 135 126
148 133 123
153 137 127
162 145 134
165 147 137
163 144 133
160 140 129
155 137 127
255 254 254
250 250 250
137 123 116
133 119 111
126 111 104
124 109 103
125 112 105
124 113 104
122 113 104
122 115 105
126 119 108
130 123 112
135 129 117
138 130 118
139 130 118
142 131 119
145 132 120
149 136 124
152 140 126
149 137 124
141 130 118
134 124 110
130 119 103
130 119 103
134 125 109
142 134 119
149 143 128
155 149 134
155 149 134
150 142 126
139 130 114
132 121 104
123 110 96
118 104 92
110 99 88
103 95 84
97 89 80
95 87 78
96 88 80
102 94 85
108 101 91
113 105 96
119 111 102
134 124 115
147 134 126
154 140 132
158 143 135
163 146 137
161 143 134
155 137 128
151 134 125
152 136 129
155 137 131
159 140 133
156 139 130
148 132 123
143 129 119
144 130 120
149 135 126
160 143 133
165 146 136
162 144 133
162 144 132
163 143 133
254 254 254
251 251 251
143 128 120
137 123 114
129 113 105
125 109 103
124 110 104
125 115 106
126 118 108
128 120 110
130 123 112
131 124 113
134 126 115
135 125 114
136 126 114
138 127 115
141 129 116
146 133 119
148 135 121
146 132 118
141 126 113
137 123 106
134 120 101
133 121 100
135 125 104
141 133 114
149 144 125
154 151 133
156 152 138
150 144 132
142 134 121
132 121 107
123 111 96
114 103 89
106 96 84
98 88 79
95 86 78
96 88 79
102 95 86
111 101 94
116 107 99
118 111 102
126 116 108
141 131 123
155 142 135
162 148 140
164 151 141
166 150 139
161 143 134
152 135 124
145 128 119
146 130 122
149 133 124
152 134 128
151 133 124
143 128 117
138 124 114
142 128 116
147 134 122
157 140 131
162 144 133
162 145 132
164 145 134
166 150 138
254 254 255
252 250 251
144 130 123
138 125 117
131 116 108
126 112 103
127 113 105
129 117 107
133 121 112
133 121 111
131 119 109
130 119 110
131 120 110
132 121 110
132 120 110
135 123 110
138 126 113
143 130 114
146 132 115
144 129 114
141 124 109
140 123 105
142 125 103
140 126 103
140 128 105
142 134 112
146 141 122
153 149 133
154 152 140
150 146 135
142 135 124
133 123 109
121 110 96
110 98 86
99 89 79
93 84 76
94 87 79
103 97 88
115 109 99
123 116 106
128 119 110
127 118 109
129 121 112
143 132 126
158 145 136
164 151 141
164 151 141
162 147 137
157 141 131
147 131 121
143 126 116
145 129 120
148 131 122
148 131 123
145 128 120
139 123 114
138 122 112
144 129 117
149 133 122
154 137 126
159 142 131
161 143 133
163 146 135
166 148 137
255 254 254
252 251 250
142 130 122
139 125 117
128 115 106
126 113 105
128 114 106
131 119 109
134 120 112
132 120 111
129 116 108
128 116 106
129 118 109
130 117 107
129 116 105
131 117 106
136 122 109
139 126 111
144 130 112
142 127 110
139 122 106
143 124 105
149 131 107
147 132 105
143 131 106
143 134 111
145 141 122
150 146 132
153 151 141
149 146 137
142 136 126
131 122 109
116 106 93
102 93 82
94 84 75
93 85 77
101 94 87
116 109 100
129 122 114
136 128 118
136 128 119
133 125 116
134 126 117
145 134 126
155 144 135
159 147 138
159 147 138
157 142 133
151 135 126
144 128 118
141 125 115
144 128 118
147 131 121
144 127 117
141 124 115
138 121 112
140 123 112
146 130 118
151 134 122
154 137 125
157 139 127
160 142 131
163 144 134
163 145 134
255 255 255
250 251 251
141 127 120
136 123 114
125 111 104
123 109 101
128 114 106
130 116 107
131 117 109
133 119 111
132 118 110
131 118 108
131 117 108
128 116 107
126 113 103
129 116 104
133 120 108
138 124 110
140 125 110
139 123 107
139 122 107
143 126 106
151 131 106
150 133 106
146 134 106
143 136 112
145 140 121
146 145 131
149 146 137
145 143 133
138 134 124
126 119 107
110 102 92
96 89 78
92 84 75
101 93 85
118 110 102
134 125 116
142 134 125
143 134 124
141 132 121
140 131 122
141 132 123
148 138 130
152 141 133
153 141 134
153 139 129
149 134 125
144 129 120
142 127 117
142 126 116
145 128 118
143 128 117
138 123 112
136 121 111
141 124 114
144 127 116
150 131 119
153 135 123
154 136 125
157 138 127
161 141 131
162 143 133
159 140 130
254 254 254
250 251 250
137 124 116
132 119 111
121 108 101
119 106 99
124 110 103
126 112 104
129 115 106
131 116 108
132 120 112
133 120 111
131 119 110
129 115 106
125 113 103
128 114 105
132 118 108
135 121 109
137 122 109
137 121 107
138 122 107
144 126 107
150 131 105
150 133 104
146 134 106
145 138 113
146 140 123
145 143 130
145 144 134
141 140 130
134 131 120
121 118 107
109 102 93
98 91 84
97 90 84
115 107 99
134 125 117
147 137 129
152 139 133
146 136 127
142 132 122
143 135 125
146 137 130
150 140 131
151 139 130
148 136 126
145 133 122
141 128 116
139 124 114
140 125 115
142 125 116
141 125 116
140 124 114
136 118 109
135 119 109
142 126 115
148 131 119
151 133 121
153 136 123
156 137 124
156 138 126
158 141 130
158 139 128
153 135 124
255 254 254
250 250 250
134 121 114
129 116 108
118 105 98
115 102 94
119 105 98
122 108 100
125 111 103
129 115 107
132 119 111
133 120 112
132 119 110
130 116 109
126 113 104
127 113 104
130 116 106
133 119 108
135 119 109
136 120 110
138 122 109
143 126 107
148 130 104
149 133 103
147 134 106
147 139 115
149 144 127
148 146 133
145 144 134
139 138 127
130 128 118
122 118 110
114 109 104
110 104 100
113 107 104
130 122 117
148 137 131
152 141 135
151 140 135
147 135 127
144 132 124
148 137 128
151 140 133
151 139 134
149 137 130
145 131 122
139 125 115
135 121 111
134 119 109
134 120 110
136 121 112
136 121 113
136 121 112
133 119 110
136 121 110
144 127 116
150 132 120
152 134 121
154 135 122
155 136 124
155 137 124
154 137 125
151 134 123
146 128 116
254 254 254
251 250 251
135 122 115
130 117 110
119 105 99
116 102 95
119 105 97
122 108 101
127 113 106
130 116 108
132 119 110
132 120 111
133 120 111
131 118 108
128 114 105
127 113 104
130 115 106
131 116 106
133 117 109
135 119 109
138 122 110
141 125 106
147 129 102
147 131 102
148 135 106
149 140 118
153 146 131
151 149 137
146 146 135
138 136 126
128 126 116
124 120 112
120 116 112
120 116 114
125 119 118
142 133 130
156 145 140
156 145 140
152 141 135
149 136 130
148 135 128
152 138 131
154 141 134
152 139 133
148 135 129
140 127 118
134 121 111
131 116 106
130 115 105
130 116 107
132 118 109
133 118 110
133 119 110
133 119 109
137 122 112
145 129 118
151 133 121
153 136 122
154 136 122
154 136 123
153 135 123
151 133 121
146 128 117
140 122 110
254 254 255
251 251 250
141 127 121
137 122 116
126 112 106
123 109 101
125 111 103
128 114 106
132 119 110
135 122 113
132 120 111
131 119 110
131 119 110
131 118 108
129 114 106
127 113 104
128 113 104
129 114 105
130 114 103
132 116 104
136 118 106
140 122 102
144 127 98
146 131 100
146 133 107
150 141 121
153 148 133
153 151 139
148 148 137
138 137 126
128 126 116
123 121 113
121 119 114
119 115 114
125 119 120
145 136 135
161 150 148
161 149 146
156 144 139
155 142 136
156 142 135
157 142 135
157 141 133
152 137 131
146 131 123
137 123 114
131 117 107
128 114 104
127 113 103
129 114 105
131 117 108
131 117 108
131 117 108
131 118 108
136 122 111
146 130 118
152 134 121
153 135 122
153 135 123
154 135 122
151 133 121
147 129 117
142 125 113
136 118 106
254 254 254
251 250 251
144 130 124
139 126 119
132 117 110
129 114 106
129 115 108
133 119 111
136 124 115
136 124 115
133 120 111
131 118 109
130 117 109
130 116 107
128 114 106
127 113 104
126 111 103
127 110 102
126 109 98
128 112 99
133 116 100
137 121 98
143 126 96
146 130 100
147 134 110
150 141 122
152 147 134
151 149 138
147 148 138
139 138 128
131 128 118
125 122 114
118 115 110
115 111 110
119 114 115
143 134 134
162 151 149
163 151 147
158 147 142
159 146 141
160 147 139
159 144 137
156 140 132
151 135 128
146 129 120
137 123 113
131 117 107
128 114 105
128 113 103
130 115 107
131 116 108
131 115 107
129 115 106
131 117 107
137 122 109
147 130 118
153 135 122
152 134 122
152 133 122
151 133 121
148 130 117
142 124 112
138 119 108
133 115 103
254 254 255
251 250 250
143 130 122
139 126 118
133 118 110
130 116 107
132 118 110
134 122 113
137 126 117
136 124 115
132 120 110
129 117 108
129 116 107
129 115 107
128 114 106
126 112 105
124 110 102
121 107 98
121 105 94
124 109 94
131 115 96
137 121 95
143 127 95
149 135 103
151 139 115
150 143 123
148 144 129
147 145 134
146 145 137
143 141 131
138 133 124
126 123 114
116 112 106
106 102 100
110 105 104
136 128 126
159 149 145
162 151 145
158 146 140
158 145 138
160 146 138
160 143 135
155 139 130
150 134 124
145 129 119
140 125 115
136 122 112
135 121 111
135 119 110
133 118 109
131 116 107
128 112 103
129 112 103
132 116 105
139 123 110
148 131 119
153 135 123
151 133 120
150 131 119
148 129 116
144 125 112
137 119 106
133 113 101
130 111 99
254 254 255
252 251 250
142 130 121
139 126 118
134 120 111
132 119 111
134 121 112
135 123 114
137 127 117
135 126 115
131 120 111
130 118 109
130 117 108
130 117 108
129 116 107
127 114 105
124 111 102
120 107 97
120 104 93
123 108 93
131 117 96
138 122 94
143 127 94
149 136 103
154 141 115
151 143 121
148 142 124
146 142 130
146 145 135
145 144 135
141 137 127
127 124 116
112 107 101
99 97 92
102 98 95
129 124 118
156 146 139
159 148 141
155 143 136
155 142 135
156 142 134
156 142 134
153 138 129
149 134 124
146 130 121
142 127 117
139 125 114
138 125 114
137 122 112
135 120 110
133 117 108
129 112 103
129 112 102
134 117 106
141 125 111
149 133 120
152 134 122
150 132 119
147 129 116
145 127 113
140 122 108
135 115 102
131 111 99
129 110 97
254 254 254
251 250 251
142 128 119
140 127 119
138 126 117
138 124 116
136 123 115
135 123 115
136 126 116
135 125 115
132 122 113
132 121 112
132 122 112
132 121 112
129 119 110
128 117 107
126 115 106
124 112 103
124 108 98
127 111 96
134 117 98
138 122 95
142 126 91
148 133 97
154 139 106
152 141 112
148 140 118
147 142 127
149 147 135
147 145 134
141 138 128
127 122 113
109 106 99
95 92 87
96 93 91
123 118 113
150 142 135
155 144 137
151 139 131
151 137 130
150 138 130
152 139 132
151 138 130
149 135 127
145 132 123
141 127 118
138 124 114
137 123 113
135 121 111
135 120 110
135 118 108
132 117 107
134 117 106
138 121 109
144 127 114
149 132 119
150 132 120
148 130 117
146 127 114
142 124 109
138 119 106
135 115 102
133 114 101
131 112 99
255 254 254
251 250 250
143 130 121
142 129 122
141 129 120
139 127 118
138 126 117
137 127 117
137 128 118
137 127 118
134 125 116
134 126 115
135 127 117
134 125 115
130 122 112
129 120 109
128 119 108
126 115 104
125 112 101
127 113 100
132 117 100
134 120 95
138 122 90
145 129 93
152 136 100
152 138 107
149 138 114
148 141 125
148 145 132
147 144 133
141 137 126
125 121 112
107 103 96
93 90 85
94 90 87
120 114 109
146 137 131
153 142 134
151 139 131
150 137 129
150 137 129
151 138 132
151 139 134
150 137 130
146 133 125
140 126 118
134 121 111
131 118 108
131 117 108
134 119 109
136 120 110
136 120 110
139 121 109
142 125 112
145 129 115
150 131 118
149 131 118
147 129 115
143 125 112
139 121 107
136 117 104
134 115 102
132 113 100
130 111 99
254 254 254
252 250 250
150 137 130
146 134 126
141 130 121
139 128 120
141 131 122
141 132 123
141 134 125
139 132 123
138 130 120
138 130 120
141 132 122
138 130 120
133 125 115
130 122 112
129 121 109
126 116 105
124 112 101
125 113 101
127 114 100
128 115 95
131 117 91
140 125 95
148 133 101
150 137 107
148 137 114
146 139 121
145 141 129
144 141 130
139 135 124
123 119 111
106 102 95
92 88 83
94 89 86
118 112 107
144 136 129
153 143 136
156 144 135
157 144 135
156 143 137
156 143 137
154 141 136
152 140 134
147 135 127
138 126 117
129 115 107
123 110 101
123 110 102
133 118 110
138 123 114
141 124 114
142 125 113
145 127 114
146 129 116
148 130 117
149 131 117
146 129 116
144 125 112
139 121 108
135 116 103
132 113 100
131 112 98
128 109 96
254 254 254
252 252 251
155 142 134
151 139 131
143 133 124
143 133 124
144 135 125
144 138 128
143 137 128
141 135 127
139 130 122
139 130 121
142 132 123
140 131 121
136 128 117
132 124 113
129 121 110
127 117 108
123 113 104
122 112 102
123 112 102
122 110 95
124 111 93
134 120 96
146 132 105
150 137 109
148 138 113
146 137 118
144 137 123
144 137 128
138 133 124
122 117 109
103 98 92
92 86 81
93 88 84
115 109 105
140 132 127
153 143 135
160 147 138
162 149 141
162 149 141
160 147 141
157 145 141
155 143 137
150 136 129
138 125 117
128 115 107
120 108 101
121 108 100
131 117 109
139 125 115
143 127 115
145 127 115
145 127 114
146 128 114
148 129 117
147 129 117
145 128 115
142 125 112
137 120 107
134 115 102
130 111 98
129 108 97
126 107 95
254 255 255
251 251 250
158 146 138
157 144 137
150 141 132
147 140 130
147 138 130
146 138 130
144 138 130
141 135 126
138 130 122
135 127 118
136 128 119
137 129 118
136 129 118
134 126 117
130 123 112
129 120 109
126 117 107
123 113 105
120 111 103
116 106 97
116 105 92
127 116 99
144 132 111
149 138 115
149 139 116
145 137 118
142 135 121
141 136 125
137 132 122
119 115 106
98 94 87
86 82 78
89 84 80
110 105 100
136 128 122
153 141 134
162 149 141
165 152 144
166 153 145
166 153 146
162 150 144
158 146 139
152 139 131
143 130 122
134 121 113
126 113 105
124 110 102
131 117 108
139 124 114
142 127 114
145 127 114
146 127 114
146 128 115
147 130 116
146 129 116
144 127 114
141 124 110
136 119 105
132 114 100
130 111 99
128 109 96
127 108 95
254 254 254
252 251 251
159 148 141
157 146 140
153 143 136
149 141 133
147 139 130
145 138 130
143 137 128
140 133 124
136 129 119
134 126 117
134 125 116
135 126 117
136 128 118
135 127 116
133 125 114
132 123 112
129 121 111
125 117 107
121 112 104
114 106 98
114 104 96
126 116 104
142 132 115
150 139 119
150 140 120
148 138 119
143 135 122
142 136 125
137 132 122
118 114 105
97 94 86
85 81 76
87 82 79
106 100 96
130 122 116
148 138 131
162 149 141
167 154 145
168 156 147
170 157 150
167 154 149
162 149 143
156 142 136
148 135 129
140 127 119
130 118 109
125 114 104
130 118 108
137 123 111
142 126 113
145 128 114
145 127 114
145 127 114
145 128 115
145 127 114
143 125 113
139 122 109
134 117 103
130 111 100
129 110 98
128 109 98
127 108 96
254 254 254
251 251 251
157 146 140
153 143 136
148 138 132
146 137 128
143 136 127
141 135 126
139 134 125
136 131 121
134 128 117
133 126 116
133 125 117
133 126 117
134 127 116
135 127 117
136 130 119
136 128 118
135 127 116
131 122 112
126 117 106
121 112 102
120 111 102
130 121 111
143 134 120
150 138 122
151 139 121
151 140 124
149 140 127
146 139 128
138 132 122
119 115 107
99 95 88
88 84 80
88 84 80
101 96 92
122 114 109
143 133 126
159 146 139
166 153 145
169 156 149
171 159 153
172 159 155
167 153 149
161 147 143
154 141 134
146 134 125
135 124 114
128 119 108
130 119 108
135 122 112
142 126 114
145 129 116
143 126 113
143 125 111
143 126 112
142 125 112
140 122 109
136 118 106
131 114 102
129 110 100
129 111 99
129 110 100
127 109 97
254 254 254
251 251 251
151 142 135
148 138 133
143 133 126
140 132 124
140 133 124
136 132 121
134 131 120
132 127 117
131 126 114
131 124 114
132 124 114
133 126 116
134 126 115
135 127 118
137 129 119
138 130 120
138 129 119
136 126 115
131 122 110
127 119 108
126 118 107
133 125 114
144 134 121
149 138 123
151 139 122
154 143 127
154 145 132
149 141 130
138 131 122
120 114 106
101 97 90
91 87 81
91 87 83
100 95 91
117 109 106
140 129 125
158 147 140
165 151 145
166 153 148
170 158 153
173 160 156
170 157 154
167 152 148
162 148 141
152 140 131
139 129 119
131 121 110
129 118 107
131 121 109
139 126 114
143 128 115
142 126 113
141 123 111
141 122 110
139 121 109
136 118 105
134 115 104
130 111 101
128 110 99
129 111 101
129 111 101
129 110 99
254 254 254
252 251 251
144 135 127
142 132 125
137 128 119
135 127 118
134 129 119
132 128 118
128 124 113
127 122 111
128 122 111
129 121 111
130 122 112
132 125 114
134 126 115
135 127 116
135 127 117
137 129 119
141 131 120
139 130 119
138 130 116
133 125 112
130 122 110
135 127 114
142 135 120
146 138 123
149 140 124
155 144 130
157 147 135
150 141 131
137 129 119
118 113 104
101 97 90
95 91 86
95 92 86
100 96 92
116 108 104
141 130 126
161 149 143
163 149 145
162 148 143
167 155 151
173 159 157
172 158 155
171 156 154
167 153 149
159 146 139
143 132 123
131 120 111
123 114 105
125 116 107
136 124 113
141 128 116
142 126 114
140 123 110
137 119 107
134 116 104
133 113 103
131 112 102
129 110 100
128 110 99
128 110 99
130 111 101
131 113 102
254 254 254
250 250 250
140 130 122
137 128 120
133 124 115
131 123 114
130 124 114
128 124 113
125 120 111
124 118 109
127 118 109
128 119 110
131 121 111
132 124 112
134 126 114
135 127 115
134 126 115
136 128 117
140 132 121
140 133 121
138 131 118
136 128 114
134 126 111
137 129 113
142 134 115
144 137 118
147 141 123
154 145 131
158 148 137
150 140 130
134 127 116
116 110 101
101 97 89
96 93 87
98 94 89
100 96 91
112 105 100
138 128 126
160 147 144
161 147 143
159 144 141
164 150 147
171 156 153
172 158 155
173 158 155
171 157 152
163 150 143
147 136 128
133 123 116
124 115 107
123 115 106
131 122 112
138 127 116
142 127 115
140 124 111
134 116 105
131 112 101
128 110 99
127 109 98
126 108 98
125 108 97
126 108 98
128 109 100
130 112 102
254 254 254
250 250 250
138 128 120
134 126 118
130 121 112
127 119 109
128 120 111
127 120 110
126 118 109
125 119 110
127 118 110
129 120 112
131 123 113
133 125 114
135 127 114
135 127 115
134 127 115
136 129 118
140 132 122
139 132 122
135 131 120
136 129 116
137 129 111
140 131 108
143 133 108
144 134 112
146 137 120
152 144 131
156 147 137
147 139 130
131 123 113
114 107 99
99 95 88
97 94 88
99 96 89
97 93 87
105 99 95
132 124 120
155 145 142
159 146 142
157 143 139
160 146 143
164 150 149
169 156 154
172 157 156
172 157 152
165 152 146
152 141 135
140 129 123
130 120 113
126 116 109
129 120 113
134 124 117
141 128 118
141 126 114
133 117 105
126 109 98
124 107 96
122 106 95
120 104 93
120 103 93
123 105 97
124 107 98
125 107 98
254 255 255
250 250 250
135 128 120
133 125 115
125 117 109
123 115 106
125 117 108
125 117 108
126 118 109
127 118 112
128 120 114
131 122 114
132 124 116
134 127 115
134 127 114
135 129 114
135 127 115
138 130 119
141 135 125
140 134 125
138 134 124
138 132 118
141 132 113
144 133 109
144 133 106
145 136 110
148 139 121
154 144 133
158 147 138
146 139 127
128 121 111
110 105 96
98 95 85
96 93 86
98 94 88
95 91 85
101 96 89
125 118 112
148 139 136
157 146 141
159 146 142
160 145 141
161 147 144
167 153 151
173 157 154
172 157 152
167 153 147
156 145 138
144 133 127
134 122 116
128 118 113
129 118 114
132 123 116
141 129 120
140 126 116
131 116 106
122 108 98
118 103 92
115 100 90
113 98 87
112 97 87
117 102 92
119 103 94
118 101 92
254 254 255
250 251 251
135 127 119
129 121 113
120 111 103
116 107 100
119 110 104
123 114 108
127 118 112
129 121 115
130 123 116
131 124 117
131 125 115
132 126 115
134 127 115
135 128 115
137 129 117
138 130 119
142 134 124
143 138 129
144 140 130
145 140 126
145 137 117
145 134 109
146 134 106
149 137 114
154 143 127
160 149 137
160 150 139
147 138 127
127 120 109
109 104 95
95 92 83
93 91 84
94 91 85
92 89 83
97 93 86
116 110 104
138 129 125
155 144 139
164 152 147
163 149 144
162 148 144
167 152 149
171 157 153
172 157 152
168 153 147
156 144 138
145 133 126
134 122 117
129 118 113
130 119 114
132 123 117
138 127 119
137 125 116
129 116 106
119 106 97
110 97 87
103 91 81
101 88 79
103 89 80
108 94 85
110 95 86
108 94 83
